<?xml version="1.0" encoding="utf-8"?>
<!-- Generator: Adobe Illustrator 25.1.0, SVG Export Plug-In . SVG Version: 6.00 Build 0)  -->
<svg version="1.1" id="Layer_1" xmlns="http://www.w3.org/2000/svg" xmlns:xlink="http://www.w3.org/1999/xlink" x="0px" y="0px"
	 viewBox="0 0 1080 1080" style="enable-background:new 0 0 1080 1080;" xml:space="preserve">
<style type="text/css">
	.st0{display:none;}
	.st1{display:inline;}
	.st2{fill:#FFD257;}
	.st3{fill:#FFFFFF;}
	.st4{opacity:0.89;}
	.st5{fill:#662D91;}
	.st6{fill:#F89C5B;}
	.st7{fill:#FFE8AE;}
</style>
<g id="Layer_4">
	<g class="st0">
		<g class="st1">
			<path d="M543.7,158.7c-9.8,9.3-18,20.7-26.1,31.7c1.4,9.6,2.7,16.2,3.7,19.7c0.6,2.2,0.9,3.8,1,4.8c0.3,2.5,0,4.2-0.9,5.2
				s-2.6,1.6-5,2c-1.8,0.3-3.6,0.1-5.4-0.6c-1.8-0.7-2.8-1.7-3-3c-0.9-5.4-2.4-13.4-4.4-23.8c-0.1-0.4-0.6-1.1-1.5-2
				c-0.9-0.9-1.5-1.5-1.8-1.8c-2.5-2.4-5.6-5-9.4-7.7s-7-4.7-9.7-5.9c-5.1-2.3-9.3-4.3-12.5-6.3c-3.2-2-5-3.5-5.3-4.6
				c-0.4-1.5,0.3-3,2.1-4.4s3.9-2.4,6.4-3c1.4-0.3,2.9-0.4,4.5-0.2c1.6,0.2,3,0.6,4.2,1.4c7.5,5.2,13.9,9.6,19.2,13.1
				c3.3,2.2,4.9,3.4,8.1,5.7c3.8-3.9,7.1-7.7,10-11.4c2.9-3.6,6.1-7.9,9.8-12.8c1-1.3,1.4-1.9,2.4-3.2c1.8-2.1,4.9-3.4,9.1-3.6
				c2-0.1,4,0.2,6,0.9c2,0.7,3,1.9,3.1,3.6C548.2,153.9,546.6,155.9,543.7,158.7z"/>
			<path d="M606.4,219.8c-2.2,0.9-4.1,1.2-5.8,1.1c-3.3-0.3-5.8-0.9-7.7-1.8c-1.9-0.9-3.6-2.3-5.1-4.4c-2.4,1.6-5.5,2.7-9.5,3.4
				s-7.5,1.1-10.8,1.1c-5.4,0-9.8-1.2-13.4-3.6c-3.6-2.4-5.6-6-5.8-10.9c-0.1-2.1,0.5-4.1,1.8-5.9s3.2-3.5,5.6-4.9
				c2.6-1.5,5.8-2.7,9.2-3.5c3.5-0.8,7.1-1.1,10.9-1c2,0.1,4.3,0.4,7,1.2s4.8,1.5,6.2,2.3c0-0.7,0.1-1.1,0.1-1.8
				c0.3-4.1-0.8-6.9-3.2-8.6c-2.4-1.7-6.4-2.7-12-2.8c-1.7,0-3.3,0.2-4.9,0.7c-1.6,0.5-3.4,1.3-5.4,2.1c-2.7,1.2-5.2,1.8-7.6,1.8
				c-0.9,0-1.7-0.4-2.5-1.3c-0.8-0.9-1.2-1.8-1.2-2.5c-0.1-2.2,1.2-4.1,3.9-5.8c2.7-1.6,5.9-2.9,9.7-3.7c3.8-0.8,7.2-1.1,10.1-1.1
				c3,0.1,6.4,0.6,10.2,1.7s6.9,2.5,9.2,4.2c2.8,2.1,4.8,4.7,6.1,7.4c1.3,2.7,1.8,5.6,1.5,8.7c-0.1,1-0.3,2.4-0.7,4.4
				c-0.4,2.1-0.7,3.9-0.8,5.4c-0.1,0.7-0.3,1.7-0.6,3c-0.4,1.6-0.6,2.9-0.7,3.9c-0.1,0.9,0.2,1.7,1,2.4c0.7,0.7,1.6,1.1,2.7,1.2
				c1.5,0.1,2.2,0.2,3.7,0.3c1,0.1,1.7,0.5,2.1,1.2c0.5,0.7,0.6,1.4,0.5,2.3C609.8,217.6,608.6,218.9,606.4,219.8z M577.3,209.3
				c2.6-0.6,5.8-1.7,9.6-3.3c0.4-1.3,0.8-2.9,1-5c-4.9-2.3-9-3.4-12.4-3.5c-3.8-0.1-7.2,0.4-10.1,1.6s-4.4,3.2-4.3,6
				c0,1.4,0.8,2.6,2.2,3.6c1.4,1,2.9,1.5,4.4,1.5C571.5,210.2,574.7,209.9,577.3,209.3z"/>
			<path d="M624.6,184c-0.8,0-1.5-0.1-2.3-0.2c-1-0.2-2-0.7-2.8-1.6c-0.8-0.9-1.2-1.6-1.1-2.2c0.3-1.9,1.7-3.3,4.4-4
				c2.7-0.7,5.3-0.8,8-0.4c2.2,0.4,4.4,1.4,6.6,3c2.1,1.6,3.6,3.4,4.4,5.4c2.9-1.8,6.3-2.8,10.2-3s7.8,0.2,11.7,1.2
				c4.4,1.1,8.1,3.3,11.2,6.5c3.1,3.2,5.1,6.7,6.2,10.6c1.1,3.9,1,7.4,0,10.5c-1,3.1-2.3,5.7-3.9,7.8c-1.6,2.1-3.7,4.2-6.4,6
				c-2.9,1.9-6.6,3.1-10.7,3.8s-8.6,0.3-13.7-0.9c-1.3-0.3-2.9-1-4.7-2.1s-3.3-2.1-4.4-3.1c-1.7,4.9-2.9,9.2-3.6,12.9
				c-0.5,2.2-0.7,4.4-1,6.4c-0.3,2.3-0.6,4.1-0.8,5.1c-0.3,1.6-1.2,2.7-2.5,3.2c-1.3,0.5-2.7,0.7-4.1,0.4c-2.8-0.5-4.5-1.6-5.2-3.2
				c-0.7-1.6-0.8-3.8-0.3-6.4c1.2-6.2,2.9-12.2,4.3-17.5c2.6-10,4.4-20.5,6.2-30.8c0.2-1.3,0.2-2.8-0.2-4.4
				c-0.4-1.6-1.4-2.5-2.9-2.8C626.2,184.1,625.4,184,624.6,184z M643.1,214.8c1.8,1.4,3.5,2.3,5.2,2.7c4.9,1.2,8.8,1,11.9-0.5
				c2.2-1.1,3.9-2.3,4.9-3.7c1-1.4,2-3.7,3-7c0.8-2.6,0.8-5,0-7.1s-2-3.9-3.6-5.2c-1.6-1.3-3.3-2.2-4.9-2.6c-3.8-1-7.1-0.8-9.9,0.4
				s-4.8,3.4-6.1,6.3c-1,2.3-3.1,7.3-3.4,12.5C640,211.8,641.2,213.4,643.1,214.8z"/>
			<path d="M769.5,214c-2.9,0.5-9.7,2.5-20.1,6.4c-8.8,3.4-15.2,6.1-19.6,7.8c-3.5,7.3-5.8,12.8-7,16.4c-0.7,2.1-1.4,3.6-1.8,4.5
				c-1.1,2.2-2.3,3.5-3.6,3.8c-1.3,0.3-3,0-5.1-1.1c-1.6-0.8-3-1.9-4-3.4s-1.3-2.9-0.8-4.1c1.6-3.6,4.5-10.3,8.7-20.2
				c0.2-0.5,0-2.1-0.6-4.8c-0.5-2.5-2.3-7.8-5.6-15.6c-3.2-7.7-5.8-13.7-7.5-18s-2.3-7.3-1.7-9c0.5-1.5,1.9-2.4,4.1-2.6
				c2.2-0.2,4.4,0.1,6.7,1c2.8,1.1,4.7,2.9,5.7,5.5c0.6,1.4,1.3,3.9,2.1,7.4c0.6,2.6,1.2,5.4,2,8.3c0.8,3,1.6,5.4,2.4,7.5
				c0.9,2.1,1.3,3.1,2.1,5.2c1.5,3.7,2.2,5.6,2.2,5.6c3.6-0.8,7-1.9,10.3-3.4c3.3-1.4,7.5-3.3,12.5-5.5c3.3-1.4,5-2.1,8.4-3.5
				c1.5-0.5,2.2-0.8,3.7-1.3c1.2-0.3,2.5-0.4,3.9-0.3c1.3,0.1,3,0.8,4.8,1.9c1.7,1,3.2,2.3,4.4,4c1.2,1.7,1.4,3.3,0.5,4.7
				C775.9,212.4,773.5,213.3,769.5,214z"/>
			<path d="M783.7,296.7c-0.7-1.6-1.1-3.8-1.1-6.7c-2.9-0.1-6.4-1.1-10.6-3c-4.2-1.9-7.6-3.7-10.2-5.5c-4.3-3-7.1-6.4-8.4-10.3
				c-1.3-3.9-0.8-7.9,1.8-12c1.1-1.8,2.8-3,4.9-3.8c2.1-0.7,4.6-1.1,7.2-0.9c2.9,0.2,6.1,1,9.6,2.4c3.4,1.4,6.3,3,8.8,4.8
				c4.1,3,7.4,6.1,10,9.1c0,0,0,0,0.1-0.1c2.5-3.2,3.3-6.2,2.3-8.9c-1-2.8-3.8-5.9-8.3-9.2c-2.9-2.1-6.1-2.9-9.7-2.3
				c-1.3,0.3-3.2-0.5-5.8-2.2c-1.3-0.8-1.9-1.9-1.9-3.1c0-1.2,0.2-2.3,0.8-3.2c1.2-1.8,3.2-2.8,6.1-2.8c2.9,0,5.9,0.7,9.2,2
				c3.3,1.3,6.1,2.9,8.5,4.6c2.3,1.7,4.8,4.1,7.3,7.2s4.3,6.1,5.2,8.8c1.1,3.3,1.3,6.6,0.8,9.6c-0.5,3-1.8,5.7-3.8,8
				c-0.6,0.7-1.7,1.8-3.1,3.2c-1.6,1.6-2.9,2.9-3.8,4c-0.4,0.5-1.1,1.1-1.9,1.8c-1,0.9-1.8,1.7-2.4,2.4c-0.6,0.7-1,1.7-1,2.8
				c0,1.1,0.2,2.4,0.7,3.6c0.5,1.1,0.7,2.1,0.6,2.8s-0.5,1.3-1,1.9s-1.5,0.9-3.1,1c-1.5,0.1-2.7-0.2-3.5-0.9
				C785.8,300.1,784.4,298.3,783.7,296.7z M772,264.3c-2.9-0.6-5.1,0.2-6.8,2.6c-0.8,1.2-1,2.5-0.6,4c0.4,1.5,1.2,2.6,2.4,3.5
				c3.1,2.2,5.9,3.8,8.3,4.8c2.5,1,5.7,1.9,9.7,2.8c1.1-0.7,2.4-1.8,3.8-3.5c0.5-0.6,1-1.1,1.3-1.4c-3.5-3.6-6.7-6.5-9.5-8.6
				C777.8,266.3,774.9,264.9,772,264.3z"/>
			<path d="M824.8,278.9c0.2-0.8,0.7-1.6,1.5-2.5c0.8-0.9,2-1.2,3.5-0.9s3.1,1.2,4.6,2.6s2.6,3.3,3.3,5.6c0.7,2.3,0.8,4.5,0.4,6.7
				c3.1-0.1,6.2,0.8,9.4,2.7s6.2,4.5,9,7.6c3.1,3.5,5.1,7.4,6,11.8c0.9,4.4,0.7,8.5-0.5,12.4c-1.2,3.8-3.2,6.7-5.8,8.8
				c-2.6,2-5.1,3.4-7.6,4.3c-2.5,0.9-5.5,1.3-8.7,1.2c-3.5-0.1-7.3-1.2-11.1-3s-7.5-4.7-11-8.6c-1-1-1.9-2.5-2.8-4.4
				c-0.9-1.9-1.6-3.6-2-5.1c-4.1,3.1-7.5,6-10.2,8.7c-1.6,1.6-3,3.2-4.3,4.8c-1.5,1.8-2.8,3.1-3.5,3.8c-1.2,1.2-2.5,1.6-3.9,1.3
				s-2.6-1-3.7-2c-2.1-2-3-3.9-2.6-5.6s1.4-3.6,3.3-5.5c4.5-4.5,9.2-8.5,13.3-12.2c7.2-6.4,14.2-13.4,20.8-20.5
				c0.6-0.6,1.2-1.9,1.8-3.8c0.5-1.9,0.8-3.5,0.7-4.9C824.5,280.9,824.6,279.8,824.8,278.9z M821.4,316.1c0.8,2.2,1.8,3.9,2.9,5.2
				c3.5,3.8,7,5.9,10.3,6.4c2.5,0.3,4.6,0.3,6.2-0.2c1.6-0.6,3.7-1.9,6.4-4.2c2.1-1.7,3.4-3.7,3.9-6c0.5-2.2,0.5-4.4-0.1-6.4
				s-1.5-3.7-2.7-5c-2.7-3-5.6-4.8-8.6-5.3c-3-0.5-6,0.1-8.7,1.8c-2.1,1.4-6.6,4.3-9.7,8.5C820.5,311.8,820.6,313.9,821.4,316.1z"/>
			<path d="M859.6,371.4c-1.7,1.1-3.6,1.4-5.7,1c-2.2-0.4-3.9-1.5-5.1-3.4c-1.5-2.2-2.2-4.4-2-6.6s1-3.9,2.5-5c1.3-1,3-1.2,5-0.8
				s3.7,1.7,5,3.6C862.8,365.6,862.8,369.4,859.6,371.4z M891,347.5c-6.6,3.6-11.6,6.5-15,8.7c-0.9,0.6-2.7,2.2-5.3,3.8
				c-1,0.6-2.2,0.7-3.4,0.1s-2.1-1.4-2.9-2.5c-0.8-1.3-1.4-2.6-1.6-3.9c-0.2-1.4,0-2.4,0.7-3.2c4.4-4.5,10.1-9.2,17.1-14.2
				c5.8-4,8.7-6,14.5-10.1c2.3-1.6,4.4-2.5,6.5-2.7s4.1,1.2,6,4c1.6,2.4,2.3,4.6,2,6.5c-0.3,1.9-1.4,3.4-3.1,4.5
				C903.1,340.8,897.9,343.8,891,347.5z"/>
		</g>
	</g>
	<g class="st0">
		<path class="st1" d="M340.1,877.8c0.5-0.5,1-0.8,1.6-0.8c1.4,0,2.3,0.3,2.9,0.8s0.9,1.4,0.9,2.7c0,0.4-0.3,1.4-0.8,3.1
			c-1.2,3.8-2.6,8.5-4.1,14.1c-0.4,1.3-0.6,2.4-0.9,3.4c-0.2,1-0.4,1.8-0.6,2.4c-1,4.1-1.8,7.2-2.5,9.3c-0.2,0.6-0.7,1.1-1.3,1.4
			c-0.6,0.3-1.2,0.5-1.9,0.5c-0.7,0-1.4-0.2-2-0.5s-1.1-0.7-1.4-1c-1.2-2.4-2.8-5.8-4.6-10s-3.2-7.9-4.2-11.1
			c-2.5,6.3-4.7,12.3-6.7,18.2c-0.1,0.4-0.2,0.8-0.4,1.2s-0.3,0.8-0.5,1.3c-0.3,0.6-0.7,1.1-1.2,1.4c-0.5,0.3-1.1,0.5-1.7,0.5
			c-0.7,0-1.4-0.2-2.1-0.5s-1.1-0.7-1.4-1c-0.5-0.9-1.1-2.2-1.6-4.1s-1.4-4.4-2.3-7.7l-1.5-5.1c-1-3.3-1.9-6.7-2.7-10.2
			c-0.8-3.5-1.1-5.6-1.1-6.2c0-0.8,0.4-1.5,1.3-2s1.7-0.8,2.5-0.8c0.5,0,1,0.2,1.5,0.5s0.9,0.8,1,1.5c1.4,7.5,3.5,16.2,6.2,26
			c1-2.5,2.2-5.5,3.5-9.1s2.5-7,3.6-10.4l0.6-1.8c0.2-0.6,0.6-1.1,1.2-1.4c0.7-0.3,1.3-0.5,2-0.5c0.9,0,1.6,0.2,2.2,0.7
			s0.9,0.9,1.1,1.4c0,0.2,0.8,2.5,2.4,7.1c1.6,4.6,3.4,9.2,5.6,13.9c0.8-2.4,1.8-6.1,2.9-11.3l0.9-4c1.1-4.2,2-7.5,2.6-9.8
			C339.3,879,339.7,878.3,340.1,877.8z"/>
		<path class="st1" d="M357.3,880.1c0,1.4-0.1,2.4-0.1,3.2c-0.1,2-0.2,4.1-0.2,6.1c0,1.5,0.1,3.1,0.2,4.7c1.2-1.8,2.6-3.1,4-4
			s3.2-1.3,5.2-1.3c1.5,0,2.9,0.7,4.1,2c1.3,1.3,2.1,2.9,2.5,4.6c0.1,1.6,0.2,3.5,0.2,5.7c0,1.4,0.1,3.3,0.2,5.6
			c0.1,0.9,0.3,1.7,0.7,2.5s0.9,1.1,1.6,1.1c0.4,0,0.6,0,0.9-0.1s0.4-0.1,0.6-0.1c0.6,0,1,0.1,1.2,0.4c0.2,0.3,0.3,0.7,0.3,1.2
			c0,1-0.5,1.7-1.4,2.2s-1.8,0.7-2.6,0.7c-2.9,0-4.9-1.2-5.9-3.6c-0.6-1.4-1-3.1-1.1-5.3s-0.2-4.7-0.2-7.7c0-2.9-1-4.3-2.9-4.3
			c-1.1,0-2.2,0.6-3.3,1.7c-1.1,1.1-2,2.6-2.7,4.5s-1.1,3.8-1.1,5.8l0.1,6.2c0,0.9-0.3,1.5-1,2s-1.3,0.6-1.9,0.6
			c-0.9,0-1.7-0.3-2.4-0.8s-1.1-1.2-1.1-1.8c0.3-3,0.4-8,0.4-15.1c0-1.3-0.1-6-0.3-14.2l-0.2-5.5c0-0.9,0.4-1.7,1.2-2.3
			c0.8-0.7,1.7-1,2.7-1c0.9,0,1.5,0.2,1.9,0.6c0.4,0.4,0.6,1,0.6,1.9C357.4,877.5,357.4,878.7,357.3,880.1z"/>
		<path class="st1" d="M408.3,913.8c-0.9,0.6-1.8,0.9-2.6,0.9c-1.5,0-2.7-0.2-3.6-0.6s-1.7-1.1-2.5-2.1c-1,0.9-2.5,1.6-4.3,2.1
			c-1.8,0.5-3.5,0.7-5,0.7c-2.5,0-4.5-0.7-6.1-2s-2.4-3.3-2.4-5.9c0-1.1,0.3-2.2,0.9-3.1s1.4-1.8,2.5-2.5c1.2-0.8,2.5-1.3,4-1.8
			c1.5-0.4,3-0.6,4.6-0.6c0.8,0,1.8,0.2,3,0.5s2.1,0.7,2.7,1v-1c0-2.2-0.5-3.7-1.6-4.5c-1-0.8-2.7-1.2-5-1.2c-0.7,0-1.4,0.1-2,0.4
			c-0.7,0.3-1.4,0.7-2.2,1.1c-1.1,0.6-2.2,0.9-3.2,0.9c-0.4,0-0.7-0.2-1-0.8c-0.3-0.5-0.5-1-0.5-1.3c0-1.2,0.5-2.2,1.6-3
			s2.4-1.5,3.9-1.9c1.5-0.4,2.9-0.6,4.1-0.6c1.2,0,2.6,0.2,4.1,0.7c1.6,0.5,2.8,1.1,3.8,1.9c1.2,1,2.1,2.2,2.8,3.6s1,2.9,1,4.5
			c0,0.5,0,1.3-0.1,2.3c-0.1,1.1-0.1,2.1-0.1,2.9c0,0.4,0,0.9-0.1,1.6c-0.1,0.9-0.1,1.6-0.1,2.1c0,0.5,0.2,0.9,0.5,1.2
			c0.4,0.3,0.8,0.5,1.3,0.5l1.7-0.1c0.4,0,0.8,0.2,1,0.5s0.4,0.7,0.4,1.2C409.7,912.5,409.2,913.2,408.3,913.8z M394.7,909.5
			c1.2-0.4,2.6-1,4.2-2c0.2-0.7,0.3-1.6,0.3-2.7c-2.2-1-4-1.6-5.5-1.6c-1.6,0-3.1,0.3-4.4,0.9c-1.3,0.6-1.9,1.7-1.9,3.2
			c0,0.8,0.3,1.4,1,1.9c0.6,0.5,1.3,0.8,2,0.8C392.1,910.1,393.5,909.9,394.7,909.5z"/>
		<path class="st1" d="M412.3,892.9c-0.3-0.4-0.5-0.8-0.5-1.4c0-0.7,0.3-1.3,0.8-1.8c0.1-0.1,0.3-0.2,0.6-0.3
			c0.3-0.1,0.5-0.2,0.7-0.3c0.9-0.3,1.4-0.5,1.7-0.7c0.9-0.6,1.5-1.5,1.9-2.8c0.3-1.5,0.5-2.6,0.6-3.1c0.1-0.9,0.4-1.5,0.9-2
			s1.1-0.7,1.9-0.7c1,0,1.7,0.3,2.1,0.8s0.6,1.5,0.6,2.9c0,1.8-0.4,3.6-1.3,5.2c0.6,0,1.5,0,2.8-0.1c1.9-0.1,3.3-0.1,4-0.1
			c0.7,0,1.3,0.2,1.8,0.5s0.8,0.8,0.8,1.5c0,1.5-0.7,2.4-2.1,2.7c-1.3,0.4-3.6,0.6-7,0.7c-0.3,3.9-0.4,7-0.4,9.3
			c0,1.4,0.1,2.4,0.2,3c0.2,1.2,0.6,2.2,1.2,2.7c0.6,0.6,1.5,0.9,2.6,0.9c0.6,0,1.4-0.1,2.5-0.4c0.7-0.2,1.2-0.3,1.6-0.3
			c0.5,0,0.9,0.2,1.2,0.5s0.4,0.8,0.4,1.4c0,1.1-0.7,2-2.1,2.7s-3.1,1-5,1c-1.2,0-2.4-0.3-3.5-0.9s-2.1-1.3-2.9-2.1
			c-0.2-0.1-0.4-0.5-0.7-1.3s-0.6-1.7-0.9-2.6c-0.1-0.5-0.2-1.6-0.2-3.5c0-1.8,0.1-4.8,0.4-9.1l0.1-1.3c-0.3,0-0.8,0-1.6-0.1
			s-1.3-0.1-1.7-0.2C413.1,893.5,412.6,893.3,412.3,892.9z"/>
		<path class="st1" d="M437.9,882.3c-0.4,0-0.8-0.1-1-0.2c-0.5-0.3-1-0.7-1.3-1.1s-0.5-1.1-0.5-1.9c0-0.6,0.2-1.1,0.4-1.6
			c0.2-0.5,0.6-0.8,1-1c0.8-0.4,1.9-0.7,3.2-0.7c1,0,1.7,0.3,2.2,1s0.8,1.5,0.8,2.5c0,1.2-0.4,2.6-1,4.2c-0.7,1.6-1.4,2.8-2.1,3.7
			c-0.5,0.6-1.1,1.1-1.7,1.6c-0.6,0.4-1.2,0.7-1.7,0.7c-1,0-1.5-0.2-1.8-0.5s-0.3-0.8-0.3-1.6c0-0.3,0.4-0.8,1.3-1.5
			c0.7-0.6,1.1-1,1.3-1.3c0.6-0.8,1-1.6,1.3-2.3L437.9,882.3L437.9,882.3z"/>
		<path class="st1" d="M468.1,903.5c0.6,0.9,1,2.1,1,3.5s-0.4,2.7-1.3,3.8s-1.9,2-3.2,2.5c-1,0.4-2.1,0.8-3.6,1s-2.5,0.4-3.3,0.4
			c-1.4,0-2.9-0.3-4.6-0.8c-1.6-0.5-3-1.3-4.2-2.2c-1.1-1-1.7-2.1-1.7-3.4c0-0.8,0.3-1.4,0.8-1.9s1.2-0.7,2-0.7
			c0.7,0,1.4,0.5,2.2,1.4c0.8,0.8,1.6,1.5,2.7,1.9c1,0.4,2,0.7,3,0.7c3.8,0,5.7-0.9,5.7-2.6c0-0.4-0.1-0.7-0.4-1
			c-0.2-0.3-0.5-0.6-0.7-0.7c-0.4-0.3-0.9-0.5-1.5-0.7c-0.6-0.2-1.3-0.4-1.9-0.5s-1.1-0.2-1.4-0.3s-1-0.2-2-0.4c-1-0.2-2-0.5-2.9-1
			c-1.5-0.7-2.8-1.6-3.7-2.6c-0.9-1-1.4-2.4-1.4-4c0-0.9,0.2-1.8,0.7-2.8s1.1-1.7,1.9-2.1c1.2-0.8,2.5-1.3,4-1.7
			c1.4-0.4,2.8-0.6,4-0.6c1,0,2.1,0.1,3.4,0.3s2.2,0.5,2.7,0.8c1,0.6,1.8,1.1,2.3,1.7s0.7,1.4,0.7,2.3c0,0.4-0.1,0.9-0.3,1.3
			c-0.2,0.4-0.4,0.7-0.7,0.9c-0.6,0.2-1.2,0.4-1.7,0.4c-0.4,0-0.7-0.1-0.9-0.2s-0.5-0.3-0.6-0.5c-0.2-0.2-0.3-0.3-0.3-0.3
			c-0.5-0.6-1.1-1-1.7-1.3c-0.6-0.3-1.6-0.5-2.8-0.5c-0.8,0-1.6,0.1-2.3,0.3c-0.7,0.2-1.3,0.5-1.7,0.8c-0.3,0.2-0.5,0.5-0.7,0.6
			s-0.2,0.4-0.2,0.7c0,1.1,1.1,1.9,3.4,2.5s3.5,0.8,3.6,0.8c0.2,0.1,0.9,0.3,2,0.6c1.1,0.3,1.9,0.6,2.4,0.9
			C466.3,901.7,467.4,902.6,468.1,903.5z"/>
		<path class="st1" d="M490.9,926c-1-0.5-1.8-1.1-2.3-1.8s-0.8-1.3-0.8-1.8c0-0.7,0.2-1.2,0.7-1.6s1.1-0.6,1.7-0.6
			c0.4,0,0.8,0.1,1.1,0.4c0.4,0.2,0.6,0.4,0.6,0.4c0.3,0.2,0.6,0.4,0.8,0.5s0.6,0.2,0.9,0.2c0.9,0,1.6-0.6,2.2-1.7s1.1-3,1.7-5.6
			c-1.8-2.6-3.3-5.3-4.5-7.9l-1.4-3.2c-0.2-0.5-0.8-1.7-1.6-3.8s-1.8-3.8-2.7-5.4c-0.6-1.1-0.8-1.9-0.8-2.3c0-1,0.4-1.7,1-2.2
			c0.7-0.5,1.5-0.7,2.4-0.7c0.6,0,1.1,0.1,1.5,0.4s0.7,0.7,1.2,1.4c1.2,1.9,2.4,4.8,3.8,8.6c0.8,2.2,1.4,3.9,1.9,5s1.1,2.3,1.7,3.5
			c0.7-1.6,1.5-4.2,2.6-8c0.6-2.2,1.2-3.9,1.6-5.2s0.9-2.5,1.4-3.6c0.4-0.7,0.8-1.3,1.4-1.7s1.1-0.7,1.8-0.7s1.4,0.2,2.2,0.8
			s1.2,1.1,1.2,1.8c0,0.4-0.1,0.9-0.4,1.4c-1.6,3.6-2.9,7-4.1,10.2s-2.3,6.7-3.4,10.5c-0.6,2.1-1.3,4.1-2,6.1s-1.2,3.1-1.5,3.5
			c-0.8,1.1-1.7,2-2.7,2.8s-2.2,1.1-3.5,1.1C493.2,926.8,491.9,926.5,490.9,926z"/>
		<path class="st1" d="M540.7,897.7c0.2,1.1,0.3,2,0.3,2.8c0,1.1-0.1,2.3-0.4,3.6s-0.5,2.3-0.7,3.1c-2.8,5-6.8,7.6-12.2,7.6
			c-2,0-4-0.7-6.1-2s-3.5-2.8-4.3-4.6c-1.1-3.4-1.6-5.6-1.6-6.5c0-1.6,0.3-3.3,1-5.1s1.6-3.4,2.7-4.7c0.7-0.9,2-1.7,3.7-2.4
			s3.4-1,4.8-1c2.8,0,5.2,0.5,7.1,1.6s3.6,2.8,4.9,5.1C540.3,895.8,540.5,896.6,540.7,897.7z M535,900.9c0-1.2-0.2-2.3-0.6-3.4
			s-1-2.1-1.8-2.9c-0.1-0.1-0.3-0.2-0.7-0.4s-0.8-0.4-1.5-0.5s-1.3-0.3-2.1-0.3c-2.2,0-3.9,0.9-4.9,2.7s-1.6,3.8-1.6,6.1
			c0,0.4,0.1,1.1,0.4,2.2s0.4,1.8,0.5,2.2c0.3,0.6,1,1.2,2,2c1,0.7,2,1.1,3.2,1.1c1.8,0,3.2-0.4,4.3-1.3s1.9-2,2.5-3.5
			C534.9,904.5,535,903.2,535,900.9z"/>
		<path class="st1" d="M545.3,893.9c-0.2-0.3-0.4-0.6-0.4-0.9c0-1.2,0.4-2,1.1-2.7s1.7-0.9,2.8-0.9c1.6,0,2.9,0.4,4,1.2
			s1.7,2,1.7,3.5c0,0.4-0.1,1.9-0.2,4.6c-0.2,3-0.2,5.1-0.2,6.1c0,1.4,0.3,2.5,0.8,3.4s1.4,1.3,2.5,1.3c2.2,0,4-1.2,5.2-3.8
			c1.2-2.5,2-5.6,2.4-9.2c0.2-1.6,0.4-3.3,0.7-5c0.2-1,0.4-1.7,0.7-2.1c0.3-0.4,0.8-0.7,1.6-0.7c0.5,0,1.1,0.1,1.8,0.4
			s1.2,0.6,1.3,1c0.2,0.6,0.4,1.3,0.4,2c0,1-0.1,2.3-0.4,3.9c-0.3,1.6-0.5,3.3-0.7,5.2c-0.1,1.7,0.2,3.4,0.8,5.3
			c0.6,1.8,1.5,3,2.6,3.6c1.3,0.6,1.9,1.2,1.9,1.7c0,0.8-0.3,1.5-0.9,2c-0.6,0.5-1.2,0.7-1.7,0.7c-1.5,0-2.8-0.5-4-1.6s-2-2.4-2.5-4
			c-0.8,1.3-1.7,2.3-2.4,3.2c-0.8,0.8-1.8,1.5-3,2s-2.7,0.8-4.4,0.8c-2.1,0-4-0.7-5.7-2.2s-2.5-4-2.5-7.6c0-1,0-2.1,0.1-3.2
			s0.1-1.9,0.1-2.4c0.1-1.4,0.2-2.8,0.2-4c0-0.4-0.1-0.7-0.4-0.9c-0.3-0.2-0.5-0.4-0.9-0.4c-0.2,0-0.5,0-0.8,0.1s-0.6,0.1-0.8,0.1
			C545.8,894.3,545.5,894.2,545.3,893.9z"/>
		<path class="st1" d="M578.8,891.2c0-0.6,0.2-1.1,0.7-1.6s1.2-0.7,2.2-0.7c1.1,0,2.1,0.3,3,0.9s1.5,1.4,1.9,2.5
			c0.9-1.1,2-1.9,3.2-2.6c1.2-0.6,2.4-1,3.6-1c1.5,0,2.8,0.4,4,1.2s1.8,1.9,1.8,3.2c0,0.8-0.3,1.5-1,2.3c-0.7,0.8-1.3,1.2-2,1.2
			c-0.4,0-0.7-0.1-0.9-0.3s-0.6-0.5-0.9-0.8c-0.4-0.4-0.7-0.7-1-0.9s-0.6-0.3-1-0.3c-0.6,0-1.2,0.1-1.8,0.3s-0.9,0.4-1.1,0.7
			c-0.6,1-1.1,1.9-1.4,2.7s-0.5,1.7-0.5,2.6c0,0.7,0,1.2-0.1,1.6l-0.1,3.4c0,0.5,0,1.1,0.1,1.7s0.1,1.1,0.1,1.4
			c0.1,1.1,0.2,2.1,0.2,3.1c0,0.7-0.3,1.3-0.8,1.8c-0.5,0.5-1.2,0.8-1.9,0.8c-1.2,0-2.1-0.2-2.6-0.7s-0.8-1.3-0.8-2.5l-0.1-3.8
			c0-0.8-0.1-1.8-0.1-3.2l0.1-4c0.1-1.9,0.1-3.5,0.1-4.7c0-0.4-0.1-0.8-0.3-1.2s-0.5-0.7-1-1.1C579.3,892.7,578.8,892,578.8,891.2z"
			/>
		<path class="st1" d="M644.8,882.5c-1.5,1.7-5.3,6.8-11.6,15.5c0.1,5.2,0.2,8.7,0.5,10.6c0.1,1.2,0.2,2.1,0.2,2.6
			c0,1.3-0.2,2.2-0.7,2.7c-0.5,0.5-1.2,0.7-2.4,0.7c-0.8,0-1.6-0.2-2.4-0.8s-1.1-1.1-1.1-1.8c0-2.9-0.1-7.2-0.2-12.8
			c0-0.2-0.2-0.6-0.5-1.2s-0.5-0.9-0.6-1.1c-0.8-1.5-1.9-3.1-3.2-5s-2.3-3.2-3.3-4.1c-1.8-1.8-3.1-3.3-4.1-4.8c-1-1.4-1.5-2.4-1.5-3
			c0-0.8,0.4-1.5,1.2-2c0.8-0.5,1.6-0.8,2.5-0.8c0.5,0,1.1,0.1,1.7,0.4c0.6,0.3,1,0.7,1.4,1.2c2.4,3.5,4.5,6.4,6.3,8.8l2.8,3.7
			c1.7-1.8,3.2-3.5,4.5-5.2c1.3-1.7,2.7-3.8,4.3-6.2l1-1.6c0.8-1,1.9-1.6,3.5-1.6c0.8,0,1.5,0.2,2.2,0.7s1.1,1.1,1.1,2
			C646.7,880,646.1,881.1,644.8,882.5z"/>
		<path class="st1" d="M674.2,911.4c-0.4-0.8-0.7-1.8-1.1-3c-0.1-0.2-0.3-0.8-0.7-1.8s-0.8-1.9-1.3-2.6c-2.5,0.4-4.6,0.5-6.2,0.5
			c-0.9,0-1.8,0-2.9-0.1s-1.8-0.1-2.4-0.1c-2-0.2-3.6-0.2-4.8-0.2c-0.5,0.6-0.9,1.3-1.2,2s-0.8,1.8-1.3,3.2
			c-0.7,2.1-1.3,3.6-1.9,4.4c-0.4,0.6-1.1,0.9-2.1,0.9c-0.9,0-1.7-0.2-2.4-0.6s-1.1-0.9-1.1-1.6c0.3-1.5,0.8-3.1,1.5-4.8
			s1.7-4,3-6.8l2.4-5.9c1.3-3.4,2.5-6.2,3.6-8.6s2.5-5.2,4.3-8.5c0.2-0.5,0.6-0.9,1.2-1.2c0.6-0.3,1.2-0.5,1.9-0.5
			c0.8,0,1.3,0,1.7,0.2c0.3,0.1,0.6,0.3,0.8,0.5s0.5,0.7,0.9,1.3c1.4,2.1,2.5,4.3,3.5,6.5s2.2,5.3,3.8,9.3l1.3,3.2
			c1.1,2.9,2.1,5.3,2.9,7.2c0.8,1.9,1.7,3.7,2.7,5.3c0.6,1,1,1.8,1,2.2c0,1-0.3,1.7-0.9,2.2s-1.3,0.8-2.2,0.8c-1.2,0-2-0.4-2.6-1.2
			C675,912.9,674.5,912.2,674.2,911.4z M666.5,892c-1.2-3.6-2.5-6.5-3.7-8.6c-0.8,1.9-1.9,4.4-3.4,7.4c-1,1.9-2.1,4.6-3.4,8.2
			c2.6,0.3,5.3,0.5,8.3,0.5c2.1,0,3.8-0.1,5-0.4C668.7,897.7,667.8,895.4,666.5,892z"/>
		<path class="st1" d="M697.4,900.8c-1.1-0.1-2.5-0.3-4.2-0.5l-0.1,6.3c0,1.1-0.1,2.6-0.1,4.6c0,1-0.3,1.8-0.9,2.4s-1.2,0.9-2,0.9
			c-1.3,0-2.3-0.2-2.9-0.5s-1-1-1-1.8c0-1.2,0.1-2.8,0.3-4.9c0.4-4.6,0.7-9.2,0.7-14c0-4.5-0.1-8.7-0.4-12.7c0-0.6,0.3-1.2,0.9-1.9
			s1.2-1.1,2.1-1.2c0.9,0,2.4-0.2,4.4-0.5c2.1-0.3,3.7-0.5,4.7-0.5c3.3,0,5.8,0.3,7.7,1s3.7,1.7,5.5,3.2c2,3.1,3,5.3,3,6.6
			c0,2.7-0.5,5.1-1.6,7.1s-2.7,3.7-4.7,4.9s-4.6,1.7-7.4,1.7C699.8,901,698.5,900.9,697.4,900.8z M696.6,881.8
			c-0.9,0.1-2.1,0.4-3.4,0.7c0.2,3.7,0.2,6.4,0.2,8c0,1.7-0.1,3.2-0.2,4.3c1.7,0.4,3.1,0.6,4.1,0.7s2.1,0.2,3.4,0.2
			c3,0,5-0.8,6.3-2.3c1.2-1.5,1.8-3.3,1.8-5.4c0-0.6-0.2-1.3-0.5-2.2c-0.4-0.9-0.7-1.5-1-1.7c-1.1-1-2.1-1.6-3.2-2s-2.4-0.5-4.2-0.5
			C698.7,881.6,697.6,881.6,696.6,881.8z"/>
		<path class="st1" d="M740.8,885.7c0,1.4-0.3,2.6-0.9,3.7c-0.6,1.1-1.5,2.3-2.8,3.7c-1.1,1.2-1.9,2.2-2.5,3.3s-0.8,2-1,2.8
			s-0.3,2.2-0.5,4c0,0.9-0.3,1.6-1,2s-1.3,0.6-2,0.6c-1.8,0-2.7-1.1-2.7-3.2c0-1.2,0.2-2.5,0.6-4.1c0.4-1.6,1.1-3.3,2.2-5.2
			c0.4-0.6,0.8-1.3,1.4-1.9c0.6-0.6,1-1.1,1.1-1.3c0.6-0.7,1.2-1.4,1.6-2.1s0.7-1.4,0.7-2c0-0.6-0.1-1.1-0.3-1.5s-0.5-0.8-0.8-1.2
			c-0.5-0.6-1.2-1.1-2-1.4c-0.8-0.4-1.6-0.5-2.3-0.5c-1.2,0-2.2,0.2-3.2,0.6c-1,0.4-1.8,1-2.3,1.6s-0.9,1.3-0.9,2
			c0,1.1,0.2,2,0.7,2.5c0.4,0.5,0.7,1,0.7,1.4c0,0.2-0.1,0.5-0.2,0.8c-0.5,1.1-1.3,1.7-2.5,1.7c-1.5,0-2.6-0.6-3.2-1.7s-1-2.5-1-4.3
			c0-1.6,0.5-3.2,1.6-4.7s2.6-2.7,4.6-3.7s4.4-1.4,7.1-1.4c1.6,0,3.1,0.3,4.5,1s2.6,1.7,3.5,3C740.2,881.9,740.8,883.7,740.8,885.7z
			 M733.1,909.3c0.6,0.6,0.9,1.4,0.9,2.5c0,0.9-0.4,1.6-1.3,2.2s-1.8,0.9-2.8,0.9c-0.7,0-1.4-0.2-2.1-0.6c-0.8-0.6-1.3-1.7-1.3-3.2
			c0-0.8,0.4-1.5,1.1-2.1s1.6-0.9,2.5-0.9C731.4,908,732.4,908.5,733.1,909.3z"/>
	</g>
	<g>
		<g id="shadow_bottom">
			<g>
				<path d="M483.2,1015.7c-120.6,0-236.1-3.4-325.2-9.6c-70.6-4.9-108.2-10.3-128-14.4c19.8-4.1,57.4-9.6,128-14.4
					c89.1-6.2,204.6-9.6,325.2-9.6s236.1,3.4,325.2,9.6c70.6,4.9,108.2,10.3,128,14.4c-19.8,4.1-57.4,9.6-128,14.4
					C719.3,1012.3,603.8,1015.7,483.2,1015.7z"/>
			</g>
			<g>
				<path d="M540,981.3c130.2,0,255.7,3,353.5,8.5c10.7,0.6,20.8,1.2,30.2,1.8c-9.4,0.6-19.5,1.2-30.2,1.8
					c-97.7,5.5-223.2,8.5-353.5,8.5s-255.7-3-353.5-8.5c-10.7-0.6-20.8-1.2-30.2-1.8c9.4-0.6,19.5-1.2,30.2-1.8
					C284.3,984.3,409.8,981.3,540,981.3 M540,957C241.8,957,0,972.5,0,991.6c0,19.2,241.8,34.7,540,34.7s540-15.5,540-34.7
					C1080,972.5,838.2,957,540,957L540,957z"/>
			</g>
		</g>
		<g id="body">
			<g>
				<path class="st2" d="M887,370.3c0,62.5-21,120.1-56.4,166.1V781c0,0.1,0,0.2,0,0.2c-8.4,117.7-103.8,210.4-220.1,210.4H360.3
					C173.3,991.6,21.9,835.6,21.9,643h586.5c-147.9-3.1-266.9-124-266.9-272.7c0-150.6,122.1-272.7,272.7-272.7S887,219.7,887,370.3
					z"/>
			</g>
			<g>
				<path d="M610.5,1003.8H360.3c-93.7,0-181.8-37.6-248-105.8C46.1,829.9,9.7,739.3,9.7,643v-12.2h488.9
					c-32.5-14.4-62.2-35-87.8-61.1c-52.5-53.6-81.4-124.4-81.4-199.5c0-157.1,127.8-284.9,284.9-284.9s284.9,127.8,284.9,284.9
					c0,62-19.5,120.7-56.4,170.2V781c0,0.5,0,1-0.1,1.5c-4.4,60-30.4,115.6-73.3,156.8C726.2,980.9,669.7,1003.8,610.5,1003.8z
					 M34.2,655.2c6.2,179.9,150.1,324.3,326,324.3h250.2c108.6,0,199.9-87.4,208-199V532.2l2.5-3.3c35.2-45.8,53.9-100.7,53.9-158.6
					c0-143.7-116.9-260.6-260.6-260.6c-143.7,0-260.6,116.9-260.6,260.6c0,140.7,114.4,257.6,255,260.5l-0.3,24.3H34.2z"/>
			</g>
		</g>
		<g id="eyeright">
			<g>
				<ellipse class="st3" cx="845" cy="394.7" rx="119" ry="116.3"/>
				<path d="M845,523.1c-72.3,0-131.1-57.6-131.1-128.5S772.8,266.2,845,266.2s131.1,57.6,131.1,128.5S917.4,523.1,845,523.1z
					 M845,290.5c-58.9,0-106.8,46.7-106.8,104.1S786.2,498.8,845,498.8s106.8-46.7,106.8-104.1S903.9,290.5,845,290.5z"/>
			</g>
			<g>
				<ellipse cx="845" cy="394.7" rx="64.4" ry="63"/>
				<path d="M845,469.8c-42.2,0-76.6-33.7-76.6-75.1s34.4-75.1,76.6-75.1s76.6,33.7,76.6,75.1S887.3,469.8,845,469.8z M845,343.9
					c-28.8,0-52.3,22.8-52.3,50.8s23.4,50.8,52.3,50.8s52.3-22.8,52.3-50.8S873.9,343.9,845,343.9z"/>
			</g>
			<g>
				<ellipse class="st3" cx="865.8" cy="370.3" rx="25.7" ry="25.1"/>
			</g>
		</g>
		<g id="GlassRight" class="st4">
			<path class="st5" d="M1080,400.7v18.8c0,64.4-52.2,116.5-116.5,116.5h-98.6c-63.7,0-115.4-51-116.5-114.5c0-0.7,0-1.4,0-2.1
				v-18.8L1080,400.7L1080,400.7z"/>
		</g>
		<g id="eyeleft">
			<g>
				<circle class="st3" cx="612.8" cy="394.7" r="124.9"/>
				<path d="M612.8,531.8c-75.6,0-137.1-61.5-137.1-137.1s61.5-137.1,137.1-137.1S750,319.1,750,394.7S688.4,531.8,612.8,531.8z
					 M612.8,281.9c-62.2,0-112.8,50.6-112.8,112.8s50.6,112.8,112.8,112.8c62.2,0,112.8-50.6,112.8-112.8S675,281.9,612.8,281.9z"/>
			</g>
			<g>
				<circle cx="612.8" cy="394.7" r="67.7"/>
				<path d="M612.8,474.5c-44,0-79.8-35.8-79.8-79.8s35.8-79.8,79.8-79.8s79.8,35.8,79.8,79.8C692.7,438.7,656.8,474.5,612.8,474.5z
					 M612.8,339.2c-30.6,0-55.5,24.9-55.5,55.5s24.9,55.5,55.5,55.5s55.5-24.9,55.5-55.5C668.3,364.1,643.4,339.2,612.8,339.2z"/>
			</g>
			<g>
				<circle class="st3" cx="639.8" cy="363.6" r="27"/>
			</g>
		</g>
		<g id="Beak">
			<g>
				<path class="st6" d="M685.1,527.7c0,0,51.2-2.2,95.4-65.5c0,0,74.3,118.5,177.5,128C958,590.3,792.1,684.7,685.1,527.7z"/>
				<path d="M846.5,630.6c-51.7,0-118.6-18.5-171.5-96l-12.3-18l21.8-1c2.3-0.1,46.4-3.6,86-60.3l10.5-15.1l9.8,15.6
					c0.7,1.1,72.5,113.5,168.3,122.4l38.5,3.6L964,600.9c-1.8,1-44.5,25-101.5,29.2C857.4,630.4,852,630.6,846.5,630.6z M706,535.7
					c40.2,50.8,91.9,74.4,154,70.1c22.3-1.5,42.4-6.6,58.1-11.8c-67.5-22.9-117.7-83.2-138-111C752.9,516,724.5,529.8,706,535.7z"/>
			</g>
			<g>
				<path class="st6" d="M686.3,524.2c0,0,53.1-26.1,70.3-103.7c0,0,133.8,71.2,247.2,31.2C1003.8,451.8,872.5,614.7,686.3,524.2z"
					/>
				<path d="M799,563.6c-35.8,0-75.5-7.8-118-28.4l-22.4-10.9l22.3-11c2.2-1.1,48.2-25.2,63.8-95.4l3.5-15.6l14.1,7.5
					c1.3,0.7,130.5,68.2,237.5,30.5l40.4-14.3l-26.9,33.4c-1.4,1.7-35.1,43-92.7,73.3C889.5,549,848,563.6,799,563.6z M711,521.9
					c66.8,26.6,133.1,23.2,197.4-10.3c22.7-11.8,41.6-25.7,55.8-37.8c-12.3,1.7-24.7,2.5-36.8,2.5c-70.5,0-135.3-25.7-162.8-38.2
					C751.6,481.5,727.9,507.8,711,521.9z"/>
			</g>
		</g>
		<g>
			<g>
				<path class="st2" d="M461.9,835.5h-60.6c-147.4,0-266.8-119.5-266.8-266.8l0,0c0-3.5,2.8-6.3,6.3-6.3h403.8
					c52.6,0,95.3,42.7,95.3,95.3l0,0C639.8,755.9,560.2,835.5,461.9,835.5z"/>
			</g>
			<g>
				<path d="M461.9,847.7h-60.6c-153.8,0-279-125.2-279-279c0-10.2,8.3-18.5,18.5-18.5h403.8c59.2,0,107.4,48.2,107.4,107.4
					C652,762.5,566.7,847.7,461.9,847.7z M146.6,574.5c3.1,137.7,116.1,248.8,254.6,248.8h60.6c91.4,0,165.7-74.3,165.7-165.7
					c0-45.8-37.3-83.1-83.1-83.1L146.6,574.5L146.6,574.5z"/>
			</g>
		</g>
		<g id="GlassLeft" class="st4">
			<path class="st5" d="M748.3,421.6h-9.4v3.2c0,61.5-49.8,111.3-111.3,111.3H518.5c-61.5,0-111.3-49.8-111.3-111.3v-24h341.1v18.8
				C748.3,420.2,748.3,420.9,748.3,421.6z"/>
		</g>
		<g id="bottom_shadow">
			<path class="st6" d="M375,979.5h250.6c0,0,162-3.7,192.6-193.4C818.2,786,835.6,987.3,375,979.5z"/>
		</g>
		<g id="feather_shadow">
			<path class="st7" d="M478,822.2c-8.3,1.3-16.8,1.9-25.5,1.9h-59.7c-137.4,0-248.9-109.2-248.9-243.8c0-1.8,0.7-3.4,1.9-4.5
				c1.2-1.2,2.8-1.9,4.6-1.9h116.1v12.8C266.5,707.6,358.7,807.4,478,822.2z"/>
		</g>
	</g>
</g>
<g id="Layer_2_1_">
</g>
</svg>
