<?xml version="1.0" encoding="utf-8"?>
<!-- Generator: Adobe Illustrator 25.1.0, SVG Export Plug-In . SVG Version: 6.00 Build 0)  -->
<svg version="1.1" xmlns="http://www.w3.org/2000/svg" xmlns:xlink="http://www.w3.org/1999/xlink" x="0px" y="0px"
	 viewBox="0 0 1080 1080" style="enable-background:new 0 0 1080 1080;" xml:space="preserve">
<style type="text/css">
	.st0{display:none;}
	.st1{display:inline;}
	.st2{fill:#FFD257;}
	.st3{fill:#FFFFFF;}
	.st4{opacity:0.89;}
	.st5{fill:#662D91;}
	.st6{fill:#F89C5B;}
	.st7{fill:#FFE8AE;}
</style>
<g id="Layer_4">
	<g class="st0">
		<g class="st1">
			<path d="M543.66,158.72c-9.76,9.3-17.96,20.67-26.07,31.67c1.44,9.62,2.72,16.23,3.65,19.71c0.58,2.17,0.89,3.8,1.01,4.77
				c0.31,2.47,0.01,4.2-0.89,5.19c-0.9,0.99-2.57,1.65-5.02,2c-1.84,0.27-3.64,0.07-5.41-0.6c-1.77-0.67-2.79-1.66-3.01-3
				c-0.91-5.43-2.38-13.36-4.44-23.79c-0.08-0.45-0.58-1.13-1.52-2.03c-0.94-0.91-1.54-1.49-1.79-1.75
				c-2.5-2.39-5.61-4.98-9.37-7.73c-3.76-2.75-7.03-4.69-9.7-5.88c-5.13-2.27-9.33-4.33-12.54-6.29c-3.2-1.96-4.99-3.46-5.27-4.55
				c-0.4-1.53,0.3-3.02,2.11-4.45c1.81-1.43,3.94-2.43,6.36-3c1.37-0.32,2.88-0.39,4.51-0.22c1.64,0.18,3.03,0.65,4.18,1.41
				c7.55,5.18,13.9,9.6,19.25,13.12c3.3,2.24,4.92,3.37,8.12,5.68c3.75-3.92,7.1-7.69,10-11.35c2.9-3.65,6.13-7.94,9.78-12.82
				c0.95-1.27,1.44-1.9,2.41-3.17c1.83-2.13,4.88-3.36,9.11-3.63c2.01-0.13,4.02,0.17,6,0.91c1.99,0.73,3.01,1.94,3.08,3.59
				C548.25,153.85,546.61,155.91,543.66,158.72z"/>
			<path d="M606.41,219.76c-2.16,0.88-4.08,1.23-5.79,1.05c-3.26-0.34-5.83-0.92-7.71-1.8c-1.88-0.87-3.59-2.33-5.12-4.4
				c-2.39,1.58-5.55,2.7-9.49,3.42c-3.94,0.72-7.54,1.08-10.84,1.06c-5.39-0.03-9.83-1.2-13.43-3.61
				c-3.61-2.41-5.59-6.01-5.82-10.91c-0.1-2.11,0.49-4.08,1.8-5.91c1.31-1.83,3.17-3.51,5.56-4.89c2.63-1.52,5.76-2.67,9.25-3.47
				c3.48-0.8,7.13-1.15,10.9-1.04c1.98,0.06,4.33,0.44,7.02,1.17c2.69,0.73,4.76,1.5,6.2,2.27c0.05-0.72,0.07-1.08,0.12-1.81
				c0.26-4.06-0.79-6.95-3.19-8.63c-2.41-1.68-6.44-2.66-12.05-2.78c-1.65-0.04-3.28,0.2-4.88,0.71c-1.6,0.51-3.43,1.26-5.43,2.14
				c-2.65,1.16-5.22,1.75-7.62,1.81c-0.86,0.02-1.69-0.43-2.49-1.34c-0.8-0.92-1.22-1.75-1.25-2.5c-0.08-2.18,1.2-4.12,3.87-5.77
				c2.67-1.65,5.9-2.89,9.67-3.68c3.77-0.79,7.16-1.13,10.14-1.05c2.98,0.08,6.39,0.64,10.19,1.71c3.8,1.07,6.93,2.47,9.17,4.17
				c2.76,2.09,4.8,4.66,6.13,7.4c1.33,2.74,1.81,5.65,1.49,8.73c-0.1,0.98-0.35,2.43-0.72,4.36c-0.4,2.07-0.67,3.87-0.82,5.37
				c-0.07,0.67-0.28,1.69-0.57,3.01c-0.36,1.61-0.56,2.94-0.66,3.91c-0.09,0.9,0.24,1.71,0.96,2.43c0.73,0.72,1.62,1.14,2.67,1.25
				c1.48,0.12,2.22,0.18,3.7,0.32c0.97,0.12,1.68,0.51,2.12,1.18c0.45,0.67,0.61,1.45,0.49,2.34
				C609.76,217.63,608.56,218.88,606.41,219.76z M577.28,209.33c2.61-0.59,5.78-1.7,9.57-3.28c0.44-1.26,0.77-2.94,0.99-5.04
				c-4.89-2.27-9.05-3.41-12.37-3.51c-3.78-0.11-7.16,0.42-10.11,1.55c-2.95,1.13-4.38,3.16-4.35,6.02c0.02,1.43,0.76,2.63,2.19,3.6
				c1.44,0.97,2.91,1.46,4.42,1.47C571.47,210.18,574.68,209.92,577.28,209.33z"/>
			<path d="M624.6,184c-0.78-0.01-1.54-0.07-2.3-0.19c-1.05-0.16-1.96-0.68-2.76-1.55c-0.8-0.88-1.16-1.61-1.08-2.21
				c0.27-1.94,1.73-3.28,4.42-3.98c2.68-0.7,5.35-0.83,7.96-0.38c2.23,0.38,4.43,1.37,6.56,2.96c2.13,1.59,3.58,3.41,4.36,5.41
				c2.93-1.79,6.33-2.8,10.19-3c3.86-0.2,7.75,0.21,11.65,1.23c4.37,1.14,8.12,3.33,11.19,6.52c3.06,3.18,5.11,6.74,6.16,10.6
				c1.06,3.86,1.02,7.37-0.03,10.52c-1.02,3.08-2.32,5.68-3.88,7.83c-1.56,2.15-3.72,4.2-6.42,5.96c-2.93,1.92-6.56,3.14-10.67,3.77
				c-4.11,0.63-8.62,0.3-13.65-0.92c-1.34-0.33-2.9-1.03-4.7-2.1c-1.8-1.07-3.26-2.1-4.38-3.11c-1.66,4.89-2.86,9.18-3.64,12.87
				c-0.46,2.21-0.74,4.4-0.96,6.38c-0.27,2.34-0.62,4.11-0.84,5.14c-0.34,1.62-1.19,2.69-2.52,3.23c-1.33,0.53-2.7,0.66-4.1,0.39
				c-2.82-0.54-4.55-1.59-5.2-3.2c-0.66-1.61-0.82-3.83-0.31-6.42c1.22-6.21,2.92-12.22,4.29-17.51
				c2.61-10.02,4.41-20.51,6.22-30.82c0.23-1.34,0.16-2.81-0.24-4.4c-0.4-1.6-1.36-2.53-2.88-2.78
				C626.19,184.08,625.38,184.01,624.6,184z M643.06,214.82c1.83,1.38,3.55,2.27,5.19,2.67c4.91,1.19,8.85,0.98,11.86-0.54
				c2.21-1.11,3.89-2.31,4.9-3.67c1-1.36,2-3.7,2.96-7.03c0.76-2.61,0.77-4.98,0.01-7.12c-0.76-2.14-1.95-3.88-3.57-5.22
				c-1.61-1.34-3.26-2.22-4.93-2.65c-3.8-0.97-7.12-0.81-9.9,0.45c-2.78,1.26-4.84,3.4-6.11,6.34c-0.99,2.3-3.08,7.29-3.39,12.46
				C640.01,211.79,641.23,213.44,643.06,214.82z"/>
			<path d="M769.46,213.99c-2.87,0.49-9.72,2.46-20.06,6.44c-8.79,3.38-15.25,6.07-19.63,7.77c-3.51,7.27-5.76,12.84-6.95,16.37
				c-0.71,2.11-1.39,3.65-1.83,4.52c-1.12,2.22-2.32,3.5-3.59,3.83c-1.27,0.34-2.98-0.02-5.14-1.06c-1.62-0.78-2.96-1.92-4.01-3.44
				c-1.05-1.52-1.31-2.9-0.75-4.13c1.61-3.57,4.51-10.29,8.65-20.16c0.22-0.48,0-2.12-0.59-4.84c-0.54-2.5-2.29-7.78-5.6-15.64
				c-3.23-7.68-5.82-13.72-7.5-17.99c-1.68-4.27-2.29-7.26-1.68-8.96c0.53-1.49,1.89-2.35,4.1-2.55c2.21-0.2,4.44,0.12,6.66,0.97
				c2.8,1.07,4.69,2.91,5.65,5.49c0.56,1.36,1.29,3.86,2.08,7.44c0.57,2.59,1.24,5.38,2.02,8.34c0.78,2.96,1.57,5.45,2.39,7.46
				c0.88,2.07,1.3,3.11,2.14,5.19c1.51,3.68,2.2,5.56,2.17,5.62c3.57-0.82,7.01-1.93,10.34-3.35c3.33-1.42,7.47-3.27,12.49-5.49
				c3.33-1.42,5.01-2.11,8.4-3.46c1.48-0.54,2.22-0.8,3.71-1.32c1.25-0.34,2.55-0.44,3.89-0.29c1.34,0.15,2.97,0.76,4.85,1.85
				c1.71,0.99,3.18,2.33,4.4,4.03c1.22,1.69,1.39,3.26,0.53,4.67C775.9,212.44,773.5,213.31,769.46,213.99z"/>
			<path d="M783.67,296.72c-0.7-1.61-1.06-3.83-1.12-6.69c-2.87-0.08-6.37-1.1-10.57-2.96c-4.19-1.86-7.58-3.66-10.18-5.5
				c-4.29-3.03-7.09-6.42-8.44-10.31c-1.35-3.89-0.77-7.91,1.85-12.05c1.13-1.78,2.75-3.05,4.9-3.78c2.14-0.73,4.59-1.07,7.23-0.89
				c2.91,0.19,6.14,1.03,9.56,2.41c3.42,1.38,6.34,2.98,8.76,4.77c4.07,3.01,7.41,6.08,10.01,9.13c0.03-0.04,0.04-0.05,0.07-0.09
				c2.54-3.18,3.31-6.17,2.27-8.94c-1.05-2.78-3.8-5.9-8.31-9.19c-2.87-2.1-6.12-2.87-9.65-2.29c-1.34,0.26-3.25-0.47-5.77-2.16
				c-1.26-0.84-1.9-1.88-1.94-3.12c-0.04-1.24,0.23-2.3,0.81-3.19c1.2-1.83,3.22-2.77,6.08-2.76c2.86,0.01,5.94,0.66,9.22,1.99
				c3.27,1.33,6.11,2.89,8.49,4.65c2.3,1.7,4.76,4.11,7.31,7.25c2.55,3.14,4.35,6.12,5.22,8.81c1.07,3.29,1.28,6.58,0.81,9.59
				c-0.48,3.01-1.75,5.67-3.76,8.02c-0.64,0.74-1.69,1.79-3.09,3.16c-1.62,1.57-2.89,2.94-3.82,4.02c-0.44,0.51-1.1,1.11-1.9,1.8
				c-1.02,0.88-1.83,1.71-2.41,2.4c-0.64,0.74-0.98,1.69-1.03,2.84c-0.05,1.15,0.19,2.38,0.73,3.63c0.5,1.15,0.71,2.08,0.57,2.77
				c-0.14,0.69-0.46,1.31-0.96,1.87c-0.5,0.56-1.53,0.89-3.07,0.98c-1.54,0.1-2.7-0.19-3.48-0.87
				C785.84,300.07,784.37,298.33,783.67,296.72z M772.02,264.29c-2.89-0.64-5.14,0.25-6.75,2.62c-0.81,1.18-0.99,2.52-0.56,4
				c0.43,1.49,1.21,2.63,2.37,3.45c3.1,2.19,5.86,3.81,8.33,4.81c2.47,1,5.69,1.9,9.7,2.77c1.1-0.67,2.43-1.83,3.8-3.48
				c0.52-0.62,0.95-1.12,1.3-1.42c-3.45-3.61-6.65-6.47-9.52-8.59C777.81,266.31,774.91,264.93,772.02,264.29z"/>
			<path d="M824.85,278.93c0.23-0.82,0.72-1.64,1.49-2.47c0.82-0.89,2-1.19,3.54-0.88c1.54,0.31,3.08,1.18,4.59,2.63
				s2.61,3.33,3.26,5.62c0.66,2.3,0.79,4.54,0.4,6.72c3.06-0.12,6.2,0.78,9.37,2.72c3.17,1.94,6.19,4.49,8.98,7.65
				c3.06,3.45,5.07,7.43,5.96,11.82c0.9,4.39,0.72,8.52-0.48,12.35c-1.2,3.83-3.15,6.74-5.78,8.77c-2.56,1.99-5.11,3.41-7.61,4.3
				c-2.51,0.89-5.48,1.34-8.74,1.25c-3.55-0.1-7.3-1.18-11.13-3.03c-3.83-1.85-7.48-4.72-11.05-8.62c-0.95-1.04-1.89-2.52-2.81-4.43
				c-0.93-1.92-1.59-3.61-1.98-5.09c-4.11,3.13-7.49,6.03-10.18,8.67c-1.62,1.58-3.05,3.25-4.34,4.78c-1.52,1.8-2.79,3.07-3.55,3.81
				c-1.19,1.16-2.49,1.57-3.91,1.26c-1.42-0.31-2.64-0.98-3.68-2c-2.07-2.05-2.95-3.9-2.61-5.61c0.34-1.71,1.43-3.65,3.29-5.53
				c4.46-4.49,9.19-8.54,13.3-12.17c7.21-6.37,14.17-13.44,20.83-20.45c0.62-0.65,1.21-1.92,1.75-3.8c0.53-1.88,0.75-3.54,0.74-4.9
				C824.48,280.9,824.62,279.75,824.85,278.93z M821.39,316.1c0.78,2.19,1.75,3.92,2.91,5.19c3.49,3.8,6.95,5.89,10.34,6.36
				c2.48,0.34,4.57,0.31,6.18-0.24c1.6-0.56,3.73-1.94,6.39-4.17c2.08-1.74,3.4-3.72,3.93-5.95c0.53-2.23,0.49-4.38-0.14-6.42
				c-0.63-2.04-1.54-3.73-2.72-5.04c-2.68-2.99-5.58-4.75-8.61-5.28c-3.04-0.53-5.97,0.08-8.67,1.81c-2.11,1.36-6.63,4.34-9.74,8.47
				C820.49,311.84,820.6,313.91,821.39,316.1z"/>
			<path d="M859.58,371.44c-1.65,1.06-3.57,1.38-5.74,1c-2.17-0.37-3.87-1.49-5.12-3.35c-1.5-2.24-2.17-4.43-2.01-6.63
				c0.16-2.2,1-3.85,2.53-4.95c1.35-0.96,3.02-1.22,5.01-0.75c1.99,0.47,3.65,1.68,4.95,3.61
				C862.76,365.62,862.82,369.37,859.58,371.44z M891,347.55c-6.64,3.6-11.64,6.51-14.98,8.69c-0.88,0.58-2.72,2.16-5.33,3.83
				c-1.01,0.65-2.25,0.66-3.36,0.14c-1.11-0.52-2.06-1.37-2.86-2.55c-0.85-1.26-1.37-2.56-1.58-3.92c-0.2-1.36,0.01-2.43,0.65-3.23
				c4.41-4.48,10.09-9.24,17.11-14.2c5.8-4.02,8.69-6.04,14.49-10.06c2.28-1.61,4.43-2.51,6.47-2.69c2.04-0.18,4.06,1.16,6.01,4.04
				c1.64,2.43,2.29,4.62,1.96,6.52c-0.33,1.9-1.36,3.4-3.07,4.51C903.09,340.83,897.9,343.81,891,347.55z"/>
		</g>
	</g>
	<g class="st0">
		<path class="st1" d="M340.15,877.76c0.48-0.54,1-0.81,1.56-0.81c1.36,0,2.34,0.26,2.94,0.78c0.6,0.52,0.9,1.42,0.9,2.7
			c0,0.36-0.28,1.38-0.84,3.06c-1.24,3.8-2.6,8.5-4.08,14.1c-0.36,1.28-0.65,2.4-0.87,3.36c-0.22,0.96-0.41,1.76-0.57,2.4
			c-0.96,4.12-1.8,7.22-2.52,9.3c-0.24,0.6-0.66,1.07-1.26,1.41c-0.6,0.34-1.24,0.51-1.92,0.51c-0.68,0-1.35-0.15-2.01-0.45
			c-0.66-0.3-1.13-0.65-1.41-1.05c-1.24-2.44-2.77-5.77-4.59-9.99c-1.82-4.22-3.23-7.91-4.23-11.07c-2.48,6.28-4.7,12.34-6.66,18.18
			c-0.12,0.36-0.25,0.75-0.39,1.17c-0.14,0.42-0.29,0.85-0.45,1.29c-0.28,0.6-0.68,1.07-1.2,1.41c-0.52,0.34-1.1,0.51-1.74,0.51
			c-0.72,0-1.42-0.15-2.1-0.45c-0.68-0.3-1.14-0.65-1.38-1.05c-0.52-0.88-1.07-2.24-1.65-4.08c-0.58-1.84-1.35-4.42-2.31-7.74
			l-1.5-5.1c-1.04-3.32-1.94-6.72-2.7-10.2c-0.76-3.48-1.14-5.56-1.14-6.24c0-0.84,0.42-1.51,1.26-2.01
			c0.84-0.5,1.68-0.75,2.52-0.75c0.48,0,0.98,0.15,1.5,0.45c0.52,0.3,0.86,0.81,1.02,1.53c1.4,7.48,3.46,16.16,6.18,26.04
			c1.04-2.48,2.19-5.5,3.45-9.06c1.26-3.56,2.47-7.02,3.63-10.38l0.6-1.8c0.16-0.6,0.57-1.07,1.23-1.41
			c0.66-0.34,1.33-0.51,2.01-0.51c0.88,0,1.6,0.22,2.16,0.66c0.56,0.44,0.92,0.92,1.08,1.44c0.04,0.16,0.84,2.54,2.4,7.14
			c1.56,4.6,3.42,9.24,5.58,13.92c0.8-2.36,1.76-6.14,2.88-11.34l0.9-3.96c1.08-4.24,1.96-7.52,2.64-9.84
			C339.31,878.99,339.67,878.3,340.15,877.76z"/>
		<path class="st1" d="M357.31,880.1c-0.04,1.38-0.08,2.43-0.12,3.15c-0.12,2.04-0.18,4.08-0.18,6.12c0,1.52,0.06,3.1,0.18,4.74
			c1.24-1.8,2.58-3.12,4.02-3.96c1.44-0.84,3.18-1.26,5.22-1.26c1.48,0,2.86,0.66,4.14,1.98c1.28,1.32,2.1,2.86,2.46,4.62
			c0.12,1.56,0.18,3.46,0.18,5.7c0,1.44,0.08,3.32,0.24,5.64c0.08,0.88,0.31,1.7,0.69,2.46c0.38,0.76,0.93,1.14,1.65,1.14
			c0.36,0,0.65-0.02,0.87-0.06c0.22-0.04,0.43-0.06,0.63-0.06c0.56,0,0.95,0.14,1.17,0.42c0.22,0.28,0.33,0.68,0.33,1.2
			c0,0.96-0.48,1.68-1.44,2.16c-0.96,0.48-1.84,0.72-2.64,0.72c-2.88,0-4.86-1.2-5.94-3.6c-0.6-1.36-0.98-3.13-1.14-5.31
			c-0.16-2.18-0.24-4.73-0.24-7.65c0-2.88-0.98-4.32-2.94-4.32c-1.08,0-2.17,0.57-3.27,1.71c-1.1,1.14-2.01,2.64-2.73,4.5
			s-1.08,3.79-1.08,5.79l0.06,6.24c0,0.88-0.34,1.53-1.02,1.95c-0.68,0.42-1.32,0.63-1.92,0.63c-0.88,0-1.68-0.27-2.4-0.81
			c-0.72-0.54-1.08-1.15-1.08-1.83c0.28-3,0.42-8.02,0.42-15.06c0-1.28-0.1-6.02-0.3-14.22l-0.18-5.52c0-0.88,0.4-1.65,1.2-2.31
			c0.8-0.66,1.7-0.99,2.7-0.99c0.88,0,1.52,0.2,1.92,0.6c0.4,0.4,0.6,1.02,0.6,1.86C357.37,877.51,357.35,878.72,357.31,880.1z"/>
		<path class="st1" d="M408.28,913.85c-0.94,0.6-1.81,0.9-2.61,0.9c-1.52,0-2.73-0.19-3.63-0.57s-1.73-1.09-2.49-2.13
			c-1.04,0.92-2.46,1.61-4.26,2.07c-1.8,0.46-3.46,0.69-4.98,0.69c-2.48,0-4.52-0.67-6.12-2.01c-1.6-1.34-2.4-3.31-2.4-5.91
			c0-1.12,0.3-2.15,0.9-3.09c0.6-0.94,1.42-1.77,2.46-2.49c1.16-0.76,2.48-1.35,3.96-1.77c1.48-0.42,3.02-0.63,4.62-0.63
			c0.84,0,1.84,0.16,3,0.48c1.16,0.32,2.06,0.66,2.7,1.02v-0.96c0-2.16-0.52-3.65-1.56-4.47c-1.04-0.82-2.72-1.23-5.04-1.23
			c-0.68,0-1.35,0.14-2.01,0.42c-0.66,0.28-1.41,0.66-2.25,1.14c-1.12,0.6-2.18,0.9-3.18,0.9c-0.36,0-0.7-0.25-1.02-0.75
			c-0.32-0.5-0.48-0.95-0.48-1.35c0-1.16,0.55-2.16,1.65-3c1.1-0.84,2.41-1.47,3.93-1.89c1.52-0.42,2.88-0.63,4.08-0.63
			c1.2,0,2.58,0.23,4.14,0.69c1.56,0.46,2.84,1.09,3.84,1.89c1.2,1.04,2.13,2.25,2.79,3.63c0.66,1.38,0.99,2.89,0.99,4.53
			c0,0.52-0.04,1.3-0.12,2.34c-0.08,1.12-0.12,2.08-0.12,2.88c0,0.36-0.04,0.9-0.12,1.62c-0.08,0.88-0.12,1.58-0.12,2.1
			c0,0.48,0.18,0.89,0.54,1.23c0.36,0.34,0.78,0.51,1.26,0.51l1.68-0.06c0.44,0,0.78,0.16,1.02,0.48c0.24,0.32,0.36,0.72,0.36,1.2
			C409.69,912.51,409.22,913.25,408.28,913.85z M394.69,909.53c1.16-0.36,2.56-1.02,4.2-1.98c0.16-0.68,0.26-1.58,0.3-2.7
			c-2.2-1.04-4.02-1.56-5.46-1.56c-1.64,0-3.1,0.3-4.38,0.9c-1.28,0.6-1.92,1.66-1.92,3.18c0,0.76,0.32,1.4,0.96,1.92
			c0.64,0.52,1.3,0.78,1.98,0.78C392.09,910.07,393.53,909.89,394.69,909.53z"/>
		<path class="st1" d="M412.3,892.94c-0.34-0.38-0.51-0.85-0.51-1.41c0-0.72,0.28-1.32,0.84-1.8c0.12-0.12,0.32-0.23,0.6-0.33
			c0.28-0.1,0.5-0.19,0.66-0.27c0.88-0.28,1.44-0.5,1.68-0.66c0.92-0.56,1.54-1.48,1.86-2.76c0.32-1.52,0.52-2.56,0.6-3.12
			c0.08-0.88,0.37-1.55,0.87-2.01c0.5-0.46,1.13-0.69,1.89-0.69c1,0,1.7,0.26,2.1,0.78c0.4,0.52,0.6,1.48,0.6,2.88
			c0,1.84-0.44,3.58-1.32,5.22c0.56,0,1.48-0.04,2.76-0.12c1.92-0.08,3.26-0.12,4.02-0.12c0.68,0,1.27,0.17,1.77,0.51
			c0.5,0.34,0.75,0.83,0.75,1.47c0,1.52-0.7,2.42-2.1,2.7c-1.28,0.36-3.6,0.58-6.96,0.66c-0.28,3.92-0.42,7.02-0.42,9.3
			c0,1.4,0.06,2.4,0.18,3c0.24,1.24,0.65,2.15,1.23,2.73c0.58,0.58,1.45,0.87,2.61,0.87c0.56,0,1.4-0.14,2.52-0.42
			c0.68-0.2,1.22-0.3,1.62-0.3c0.52,0,0.92,0.18,1.2,0.54c0.28,0.36,0.42,0.84,0.42,1.44c0,1.08-0.7,1.97-2.1,2.67
			c-1.4,0.7-3.06,1.05-4.98,1.05c-1.2,0-2.38-0.29-3.54-0.87c-1.16-0.58-2.14-1.29-2.94-2.13c-0.16-0.08-0.39-0.52-0.69-1.32
			c-0.3-0.8-0.59-1.68-0.87-2.64c-0.12-0.48-0.18-1.64-0.18-3.48c0-1.76,0.12-4.8,0.36-9.12l0.06-1.32c-0.28,0-0.8-0.03-1.56-0.09
			c-0.76-0.06-1.32-0.11-1.68-0.15C413.09,893.55,412.64,893.32,412.3,892.94z"/>
		<path class="st1" d="M437.89,882.29c-0.44,0-0.76-0.08-0.96-0.24c-0.52-0.32-0.95-0.7-1.29-1.14c-0.34-0.44-0.51-1.08-0.51-1.92
			c0.04-0.6,0.18-1.13,0.42-1.59c0.24-0.46,0.58-0.79,1.02-0.99c0.84-0.44,1.92-0.66,3.24-0.66c0.96,0,1.71,0.35,2.25,1.05
			c0.54,0.7,0.81,1.55,0.81,2.55c0,1.2-0.35,2.59-1.05,4.17c-0.7,1.58-1.39,2.81-2.07,3.69c-0.52,0.6-1.1,1.12-1.74,1.56
			c-0.64,0.44-1.2,0.66-1.68,0.66c-0.96,0-1.55-0.15-1.77-0.45c-0.22-0.3-0.33-0.83-0.33-1.59c0-0.32,0.42-0.82,1.26-1.5
			c0.68-0.6,1.1-1.02,1.26-1.26c0.6-0.8,1.04-1.58,1.32-2.34H437.89z"/>
		<path class="st1" d="M468.07,903.5c0.64,0.9,0.96,2.07,0.96,3.51s-0.42,2.71-1.26,3.81c-0.84,1.1-1.92,1.95-3.24,2.55
			c-0.96,0.44-2.15,0.78-3.57,1.02c-1.42,0.24-2.53,0.36-3.33,0.36c-1.4,0-2.92-0.26-4.56-0.78c-1.64-0.52-3.03-1.26-4.17-2.22
			c-1.14-0.96-1.71-2.08-1.71-3.36c0-0.8,0.26-1.43,0.78-1.89c0.52-0.46,1.2-0.69,2.04-0.69c0.68,0,1.4,0.48,2.16,1.44
			c0.76,0.84,1.65,1.48,2.67,1.92c1.02,0.44,2.03,0.66,3.03,0.66c3.8,0,5.7-0.86,5.7-2.58c0-0.36-0.12-0.71-0.36-1.05
			c-0.24-0.34-0.46-0.57-0.66-0.69c-0.36-0.28-0.86-0.52-1.5-0.72c-0.64-0.2-1.28-0.37-1.92-0.51c-0.64-0.14-1.12-0.25-1.44-0.33
			c-0.32-0.08-0.99-0.22-2.01-0.42c-1.02-0.2-1.99-0.54-2.91-1.02c-1.52-0.72-2.75-1.6-3.69-2.64c-0.94-1.04-1.41-2.38-1.41-4.02
			c0-0.92,0.23-1.85,0.69-2.79c0.46-0.94,1.09-1.65,1.89-2.13c1.2-0.76,2.52-1.34,3.96-1.74c1.44-0.4,2.78-0.6,4.02-0.6
			c1,0,2.13,0.1,3.39,0.3c1.26,0.2,2.17,0.48,2.73,0.84c1.04,0.56,1.8,1.14,2.28,1.74s0.72,1.36,0.72,2.28c0,0.44-0.1,0.87-0.3,1.29
			c-0.2,0.42-0.44,0.71-0.72,0.87c-0.64,0.24-1.2,0.36-1.68,0.36c-0.36,0-0.66-0.07-0.9-0.21c-0.24-0.14-0.45-0.29-0.63-0.45
			c-0.18-0.16-0.29-0.26-0.33-0.3c-0.52-0.56-1.1-1-1.74-1.32c-0.64-0.32-1.58-0.48-2.82-0.48c-0.8,0-1.57,0.11-2.31,0.33
			c-0.74,0.22-1.31,0.49-1.71,0.81c-0.32,0.24-0.54,0.45-0.66,0.63c-0.12,0.18-0.18,0.41-0.18,0.69c0,1.12,1.13,1.94,3.39,2.46
			c2.26,0.52,3.45,0.8,3.57,0.84c0.24,0.08,0.91,0.28,2.01,0.6c1.1,0.32,1.89,0.62,2.37,0.9
			C466.31,901.69,467.43,902.6,468.07,903.5z"/>
		<path class="st1" d="M490.9,926c-1.02-0.5-1.78-1.1-2.28-1.8c-0.5-0.7-0.75-1.31-0.75-1.83c0-0.68,0.24-1.21,0.72-1.59
			c0.48-0.38,1.06-0.57,1.74-0.57c0.4,0,0.78,0.12,1.14,0.36c0.36,0.24,0.56,0.38,0.6,0.42c0.28,0.2,0.56,0.37,0.84,0.51
			c0.28,0.14,0.58,0.21,0.9,0.21c0.88,0,1.6-0.58,2.16-1.74c0.56-1.16,1.12-3.04,1.68-5.64c-1.8-2.64-3.3-5.28-4.5-7.92l-1.38-3.18
			c-0.2-0.48-0.75-1.73-1.65-3.75c-0.9-2.02-1.79-3.81-2.67-5.37c-0.56-1.12-0.84-1.88-0.84-2.28c0-1,0.35-1.74,1.05-2.22
			c0.7-0.48,1.51-0.72,2.43-0.72c0.64,0,1.13,0.13,1.47,0.39c0.34,0.26,0.73,0.73,1.17,1.41c1.16,1.92,2.42,4.8,3.78,8.64
			c0.8,2.2,1.44,3.87,1.92,5.01c0.48,1.14,1.06,2.29,1.74,3.45c0.68-1.56,1.54-4.22,2.58-7.98c0.64-2.16,1.17-3.89,1.59-5.19
			s0.89-2.49,1.41-3.57c0.36-0.72,0.81-1.3,1.35-1.74c0.54-0.44,1.15-0.66,1.83-0.66c0.68,0,1.41,0.25,2.19,0.75
			c0.78,0.5,1.17,1.09,1.17,1.77c0,0.4-0.14,0.88-0.42,1.44c-1.56,3.6-2.93,6.99-4.11,10.17c-1.18,3.18-2.31,6.67-3.39,10.47
			c-0.64,2.12-1.31,4.14-2.01,6.06c-0.7,1.92-1.19,3.1-1.47,3.54c-0.8,1.12-1.7,2.05-2.7,2.79c-1,0.74-2.16,1.11-3.48,1.11
			C493.19,926.75,491.92,926.5,490.9,926z"/>
		<path class="st1" d="M540.73,897.68c0.2,1.06,0.3,2.01,0.3,2.85c0,1.08-0.12,2.28-0.36,3.6s-0.46,2.34-0.66,3.06
			c-2.76,5.04-6.84,7.56-12.24,7.56c-2,0-4.04-0.66-6.12-1.98c-2.08-1.32-3.52-2.84-4.32-4.56c-1.08-3.4-1.62-5.58-1.62-6.54
			c0-1.6,0.35-3.3,1.05-5.1c0.7-1.8,1.59-3.36,2.67-4.68c0.72-0.92,1.96-1.71,3.72-2.37s3.36-0.99,4.8-0.99
			c2.8,0,5.17,0.53,7.11,1.59s3.57,2.77,4.89,5.13C540.27,895.81,540.53,896.62,540.73,897.68z M535.03,900.89
			c0-1.16-0.21-2.3-0.63-3.42c-0.42-1.12-1.03-2.08-1.83-2.88c-0.08-0.08-0.3-0.21-0.66-0.39c-0.36-0.18-0.85-0.36-1.47-0.54
			c-0.62-0.18-1.33-0.27-2.13-0.27c-2.24,0-3.88,0.9-4.92,2.7s-1.56,3.84-1.56,6.12c0,0.36,0.12,1.1,0.36,2.22
			c0.24,1.12,0.42,1.84,0.54,2.16c0.32,0.56,0.97,1.21,1.95,1.95c0.98,0.74,2.05,1.11,3.21,1.11c1.8,0,3.23-0.43,4.29-1.29
			c1.06-0.86,1.91-2.01,2.55-3.45C534.93,904.51,535.03,903.17,535.03,900.89z"/>
		<path class="st1" d="M545.29,893.9c-0.24-0.26-0.36-0.57-0.36-0.93c0-1.16,0.38-2.05,1.14-2.67c0.76-0.62,1.7-0.93,2.82-0.93
			c1.56,0,2.91,0.41,4.05,1.23c1.14,0.82,1.71,1.99,1.71,3.51c0,0.4-0.08,1.92-0.24,4.56c-0.16,3.04-0.24,5.06-0.24,6.06
			c0,1.4,0.27,2.53,0.81,3.39s1.39,1.29,2.55,1.29c2.24,0,3.97-1.25,5.19-3.75c1.22-2.5,2.03-5.57,2.43-9.21
			c0.16-1.6,0.4-3.28,0.72-5.04c0.16-0.96,0.38-1.66,0.66-2.1c0.28-0.44,0.82-0.66,1.62-0.66c0.52,0,1.13,0.12,1.83,0.36
			c0.7,0.24,1.15,0.56,1.35,0.96c0.24,0.6,0.36,1.26,0.36,1.98c0,1-0.14,2.3-0.42,3.9c-0.32,1.6-0.54,3.34-0.66,5.22
			c-0.08,1.68,0.18,3.44,0.78,5.28c0.6,1.84,1.46,3.04,2.58,3.6c1.28,0.64,1.92,1.22,1.92,1.74c0,0.84-0.3,1.5-0.9,1.98
			c-0.6,0.48-1.18,0.72-1.74,0.72c-1.48,0-2.81-0.54-3.99-1.62c-1.18-1.08-2.03-2.42-2.55-4.02c-0.84,1.28-1.65,2.33-2.43,3.15
			c-0.78,0.82-1.77,1.5-2.97,2.04s-2.68,0.81-4.44,0.81c-2.08,0-3.97-0.74-5.67-2.22c-1.7-1.48-2.55-4.02-2.55-7.62
			c0-1,0.03-2.06,0.09-3.18c0.06-1.12,0.09-1.92,0.09-2.4c0.12-1.44,0.18-2.76,0.18-3.96c0-0.36-0.13-0.66-0.39-0.9
			c-0.26-0.24-0.55-0.36-0.87-0.36c-0.24,0-0.51,0.03-0.81,0.09c-0.3,0.06-0.57,0.09-0.81,0.09
			C545.81,894.29,545.53,894.16,545.29,893.9z"/>
		<path class="st1" d="M578.83,891.17c0-0.56,0.24-1.08,0.72-1.56c0.48-0.48,1.2-0.72,2.16-0.72c1.12,0,2.13,0.29,3.03,0.87
			c0.9,0.58,1.53,1.41,1.89,2.49c0.92-1.08,1.97-1.94,3.15-2.58c1.18-0.64,2.39-0.96,3.63-0.96c1.48,0,2.82,0.4,4.02,1.2
			s1.8,1.88,1.8,3.24c0,0.76-0.33,1.54-0.99,2.34c-0.66,0.8-1.33,1.2-2.01,1.2c-0.36,0-0.67-0.09-0.93-0.27
			c-0.26-0.18-0.57-0.45-0.93-0.81c-0.4-0.4-0.74-0.69-1.02-0.87c-0.28-0.18-0.6-0.27-0.96-0.27c-0.64,0-1.24,0.1-1.8,0.3
			c-0.56,0.2-0.94,0.44-1.14,0.72c-0.64,1-1.11,1.9-1.41,2.7c-0.3,0.8-0.45,1.66-0.45,2.58c0,0.68-0.02,1.22-0.06,1.62l-0.06,3.42
			c0,0.52,0.02,1.1,0.06,1.74c0.04,0.64,0.08,1.12,0.12,1.44c0.12,1.08,0.18,2.12,0.18,3.12c0,0.68-0.26,1.28-0.78,1.8
			c-0.52,0.52-1.16,0.78-1.92,0.78c-1.2,0-2.08-0.23-2.64-0.69s-0.84-1.31-0.84-2.55l-0.06-3.84c-0.04-0.76-0.06-1.84-0.06-3.24
			l0.06-3.96c0.08-1.92,0.12-3.48,0.12-4.68c0-0.44-0.09-0.84-0.27-1.2c-0.18-0.36-0.53-0.72-1.05-1.08
			C579.35,892.73,578.83,891.97,578.83,891.17z"/>
		<path class="st1" d="M644.83,882.47c-1.48,1.68-5.34,6.84-11.58,15.48c0.08,5.16,0.24,8.7,0.48,10.62
			c0.12,1.2,0.18,2.06,0.18,2.58c0,1.32-0.23,2.21-0.69,2.67c-0.46,0.46-1.25,0.69-2.37,0.69c-0.84,0-1.63-0.25-2.37-0.75
			c-0.74-0.5-1.11-1.11-1.11-1.83c0-2.92-0.06-7.2-0.18-12.84c0-0.24-0.16-0.64-0.48-1.2c-0.32-0.56-0.52-0.92-0.6-1.08
			c-0.84-1.48-1.89-3.13-3.15-4.95c-1.26-1.82-2.35-3.19-3.27-4.11c-1.76-1.76-3.14-3.35-4.14-4.77c-1-1.42-1.5-2.43-1.5-3.03
			c0-0.84,0.39-1.51,1.17-2.01c0.78-0.5,1.63-0.75,2.55-0.75c0.52,0,1.07,0.14,1.65,0.42c0.58,0.28,1.05,0.68,1.41,1.2
			c2.36,3.52,4.46,6.44,6.3,8.76l2.82,3.66c1.72-1.76,3.23-3.51,4.53-5.25c1.3-1.74,2.73-3.81,4.29-6.21l1.02-1.56
			c0.76-1.04,1.94-1.56,3.54-1.56c0.76,0,1.51,0.22,2.25,0.66c0.74,0.44,1.11,1.1,1.11,1.98
			C646.69,880.01,646.07,881.07,644.83,882.47z"/>
		<path class="st1" d="M674.17,911.36c-0.36-0.82-0.74-1.81-1.14-2.97c-0.08-0.2-0.31-0.8-0.69-1.8c-0.38-1-0.81-1.86-1.29-2.58
			c-2.52,0.36-4.58,0.54-6.18,0.54c-0.88,0-1.85-0.03-2.91-0.09c-1.06-0.06-1.85-0.09-2.37-0.09c-2-0.16-3.6-0.24-4.8-0.24
			c-0.48,0.64-0.89,1.32-1.23,2.04s-0.77,1.8-1.29,3.24c-0.72,2.08-1.34,3.56-1.86,4.44c-0.36,0.6-1.06,0.9-2.1,0.9
			c-0.88,0-1.69-0.19-2.43-0.57c-0.74-0.38-1.11-0.91-1.11-1.59c0.32-1.52,0.83-3.13,1.53-4.83c0.7-1.7,1.71-3.97,3.03-6.81
			l2.4-5.88c1.32-3.36,2.53-6.24,3.63-8.64c1.1-2.4,2.55-5.24,4.35-8.52c0.24-0.48,0.64-0.89,1.2-1.23
			c0.56-0.34,1.18-0.51,1.86-0.51c0.76,0,1.31,0.05,1.65,0.15c0.34,0.1,0.61,0.26,0.81,0.48c0.2,0.22,0.5,0.67,0.9,1.35
			c1.36,2.12,2.53,4.3,3.51,6.54c0.98,2.24,2.23,5.34,3.75,9.3l1.26,3.18c1.12,2.88,2.09,5.29,2.91,7.23
			c0.82,1.94,1.73,3.71,2.73,5.31c0.64,1.04,0.96,1.76,0.96,2.16c0,0.96-0.29,1.69-0.87,2.19c-0.58,0.5-1.33,0.75-2.25,0.75
			c-1.16,0-2.04-0.4-2.64-1.2C674.97,912.93,674.53,912.18,674.17,911.36z M666.55,892.01c-1.24-3.6-2.48-6.46-3.72-8.58
			c-0.76,1.92-1.88,4.4-3.36,7.44c-1,1.88-2.14,4.6-3.42,8.16c2.56,0.32,5.32,0.48,8.28,0.48c2.12,0,3.78-0.14,4.98-0.42
			C668.67,897.73,667.75,895.37,666.55,892.01z"/>
		<path class="st1" d="M697.42,900.8c-1.06-0.1-2.45-0.27-4.17-0.51l-0.06,6.3c-0.04,1.08-0.06,2.62-0.06,4.62
			c0,1.04-0.29,1.85-0.87,2.43c-0.58,0.58-1.23,0.87-1.95,0.87c-1.32,0-2.3-0.17-2.94-0.51c-0.64-0.34-0.96-0.95-0.96-1.83
			c0-1.16,0.1-2.8,0.3-4.92c0.44-4.56,0.66-9.24,0.66-14.04c0-4.48-0.14-8.7-0.42-12.66c0.04-0.56,0.33-1.2,0.87-1.92
			s1.23-1.12,2.07-1.2c0.92,0,2.38-0.16,4.38-0.48c2.08-0.32,3.66-0.48,4.74-0.48c3.28,0,5.83,0.32,7.65,0.96
			c1.82,0.64,3.65,1.7,5.49,3.18c2,3.12,3,5.32,3,6.6c0,2.68-0.54,5.06-1.62,7.14c-1.08,2.08-2.66,3.7-4.74,4.86
			c-2.08,1.16-4.56,1.74-7.44,1.74C699.79,900.95,698.48,900.9,697.42,900.8z M696.64,881.78c-0.94,0.14-2.07,0.37-3.39,0.69
			c0.16,3.68,0.24,6.36,0.24,8.04c0,1.72-0.06,3.16-0.18,4.32c1.72,0.36,3.08,0.59,4.08,0.69c1,0.1,2.12,0.15,3.36,0.15
			c2.96,0,5.05-0.77,6.27-2.31c1.22-1.54,1.83-3.33,1.83-5.37c0-0.6-0.18-1.34-0.54-2.22c-0.36-0.88-0.68-1.46-0.96-1.74
			c-1.08-0.96-2.13-1.61-3.15-1.95c-1.02-0.34-2.43-0.51-4.23-0.51C698.69,881.57,697.58,881.64,696.64,881.78z"/>
		<path class="st1" d="M740.77,885.65c0,1.36-0.3,2.58-0.9,3.66c-0.6,1.08-1.54,2.3-2.82,3.66c-1.12,1.16-1.94,2.25-2.46,3.27
			c-0.52,1.02-0.85,1.96-0.99,2.82c-0.14,0.86-0.29,2.21-0.45,4.05c0,0.92-0.32,1.59-0.96,2.01s-1.3,0.63-1.98,0.63
			c-1.8,0-2.7-1.08-2.7-3.24c0-1.16,0.2-2.54,0.6-4.14c0.4-1.6,1.14-3.34,2.22-5.22c0.36-0.64,0.83-1.28,1.41-1.92
			c0.58-0.64,0.95-1.06,1.11-1.26c0.64-0.68,1.18-1.39,1.62-2.13c0.44-0.74,0.66-1.39,0.66-1.95c0-0.64-0.09-1.14-0.27-1.5
			c-0.18-0.36-0.45-0.76-0.81-1.2c-0.52-0.6-1.2-1.08-2.04-1.44c-0.84-0.36-1.62-0.54-2.34-0.54c-1.16,0-2.23,0.21-3.21,0.63
			c-0.98,0.42-1.76,0.96-2.34,1.62c-0.58,0.66-0.87,1.33-0.87,2.01c0,1.12,0.22,1.96,0.66,2.52c0.44,0.52,0.66,1,0.66,1.44
			c0,0.24-0.06,0.52-0.18,0.84c-0.48,1.12-1.3,1.68-2.46,1.68c-1.48,0-2.56-0.56-3.24-1.68c-0.68-1.12-1.02-2.54-1.02-4.26
			c0-1.64,0.52-3.21,1.56-4.71s2.56-2.73,4.56-3.69c2-0.96,4.38-1.44,7.14-1.44c1.6,0,3.1,0.35,4.5,1.05
			c1.4,0.7,2.56,1.71,3.48,3.03C740.15,881.93,740.77,883.73,740.77,885.65z M733.09,909.29c0.6,0.6,0.9,1.42,0.9,2.46
			c0,0.88-0.42,1.61-1.26,2.19c-0.84,0.58-1.76,0.87-2.76,0.87c-0.72,0-1.42-0.2-2.1-0.6c-0.84-0.6-1.26-1.66-1.26-3.18
			c0-0.8,0.37-1.5,1.11-2.1c0.74-0.6,1.57-0.9,2.49-0.9C731.41,908.03,732.37,908.45,733.09,909.29z"/>
	</g>
	<g>
		<g id="shadow_bottom">
			<g>
				<path d="M454.74,1014.16c-113.05,0-221.31-3.19-304.85-8.98c-66.18-4.59-101.39-9.67-119.99-13.54
					c18.6-3.87,53.81-8.96,119.99-13.54c83.53-5.79,191.8-8.98,304.85-8.98s221.31,3.19,304.85,8.98
					c66.18,4.59,101.39,9.67,119.99,13.54c-18.6,3.87-53.81,8.96-119.99,13.54C676.05,1010.98,567.79,1014.16,454.74,1014.16z"/>
			</g>
			<g>
				<path d="M454.74,981.29c109.64,0,215.35,3.02,297.65,8.52c9.05,0.6,17.52,1.22,25.47,1.84c-7.94,0.62-16.42,1.23-25.47,1.84
					c-82.3,5.49-188,8.52-297.65,8.52s-215.35-3.02-297.65-8.52c-9.05-0.6-17.52-1.22-25.47-1.84c7.94-0.62,16.42-1.23,25.47-1.84
					C239.39,984.31,345.09,981.29,454.74,981.29 M454.74,956.96C203.59,956.96,0,972.49,0,991.64c0,19.16,203.59,34.69,454.74,34.69
					s454.74-15.53,454.74-34.69C909.47,972.49,705.88,956.96,454.74,956.96L454.74,956.96z"/>
			</g>
		</g>
		<g id="body">
			<g>
				<path class="st2" d="M886.99,370.29c0,62.5-21.02,120.09-56.38,166.07v244.62c0,0.06,0,0.17-0.02,0.23
					c-8.43,117.67-103.76,210.44-220.14,210.44H360.27c-186.92,0-338.4-156.07-338.4-348.66h586.5
					c-147.92-3.12-266.86-124.04-266.86-272.7c0-150.62,122.11-272.74,272.74-272.74S886.99,219.67,886.99,370.29z"/>
			</g>
			<g>
				<path d="M610.45,1003.81H360.27c-93.72,0-181.81-37.58-248.03-105.8C46.12,829.88,9.7,739.31,9.7,642.99v-12.17h488.86
					c-32.46-14.42-62.21-35-87.78-61.09c-52.52-53.58-81.44-124.41-81.44-199.45c0-157.1,127.81-284.91,284.91-284.91
					c157.1,0,284.91,127.81,284.91,284.91c0,62-19.48,120.74-56.38,170.16v240.53c0,0.53-0.03,1.04-0.09,1.54
					c-4.4,59.95-30.41,115.63-73.26,156.81C726.16,980.91,669.7,1003.81,610.45,1003.81z M34.25,655.16
					c6.24,179.92,150.09,324.32,326.02,324.32h250.18c108.6,0,199.94-87.41,207.99-199.02V532.22l2.52-3.28
					c35.24-45.81,53.86-100.67,53.86-158.65c0-143.68-116.89-260.58-260.58-260.58c-143.68,0-260.57,116.89-260.57,260.58
					c0,140.69,114.37,257.57,254.95,260.54l-0.26,24.33H34.25z"/>
			</g>
		</g>
		<g id="eyeright">
			<g>
				<ellipse class="st3" cx="845.05" cy="394.67" rx="118.96" ry="116.29"/>
				<path d="M845.05,523.13c-72.31,0-131.13-57.63-131.13-128.46s58.83-128.46,131.13-128.46s131.13,57.63,131.13,128.46
					S917.36,523.13,845.05,523.13z M845.05,290.55c-58.89,0-106.8,46.71-106.8,104.12c0,57.41,47.91,104.12,106.8,104.12
					s106.8-46.71,106.8-104.12C951.85,337.26,903.94,290.55,845.05,290.55z"/>
			</g>
			<g>
				<ellipse cx="845.05" cy="394.67" rx="64.42" ry="62.98"/>
				<path d="M845.05,469.82c-42.23,0-76.59-33.71-76.59-75.14s34.36-75.14,76.59-75.14c42.23,0,76.59,33.71,76.59,75.14
					S887.28,469.82,845.05,469.82z M845.05,343.86c-28.81,0-52.26,22.79-52.26,50.81s23.44,50.81,52.26,50.81
					s52.26-22.79,52.26-50.81S873.86,343.86,845.05,343.86z"/>
			</g>
			<g>
				<ellipse class="st3" cx="865.76" cy="370.3" rx="25.68" ry="25.1"/>
			</g>
		</g>
		<g id="GlassRight" class="st4">
			<path class="st5" d="M1080,400.73v18.77c0,64.36-52.16,116.52-116.52,116.52h-98.63c-63.69,0-115.4-51.05-116.5-114.46
				c-0.02-0.68-0.02-1.38-0.02-2.06v-18.77H1080z"/>
		</g>
		<g id="eyeleft">
			<g>
				<circle class="st3" cx="612.83" cy="394.67" r="124.95"/>
				<path d="M612.83,531.79c-75.61,0-137.12-61.51-137.12-137.12s61.51-137.12,137.12-137.12s137.12,61.51,137.12,137.12
					S688.43,531.79,612.83,531.79z M612.83,281.89c-62.19,0-112.78,50.59-112.78,112.78s50.6,112.78,112.78,112.78
					c62.19,0,112.79-50.59,112.79-112.78S675.02,281.89,612.83,281.89z"/>
			</g>
			<g>
				<circle cx="612.83" cy="394.67" r="67.67"/>
				<path d="M612.83,474.51c-44.02,0-79.83-35.81-79.83-79.83c0-44.02,35.81-79.83,79.83-79.83c44.02,0,79.83,35.81,79.83,79.83
					C692.66,438.69,656.85,474.51,612.83,474.51z M612.83,339.17c-30.6,0-55.5,24.9-55.5,55.5c0,30.6,24.9,55.5,55.5,55.5
					s55.5-24.9,55.5-55.5C668.32,364.07,643.43,339.17,612.83,339.17z"/>
			</g>
			<g>
				<circle class="st3" cx="639.79" cy="363.6" r="26.97"/>
			</g>
		</g>
		<g id="Beak">
			<g>
				<path class="st6" d="M685.08,527.7c0,0,51.24-2.24,95.42-65.5c0,0,74.35,118.51,177.53,128.05
					C958.03,590.26,792.08,684.74,685.08,527.7z"/>
				<path d="M846.47,630.6c-51.69,0-118.58-18.46-171.45-96.04l-12.3-18.05l21.77-0.95c2.26-0.14,46.43-3.61,86.03-60.31
					l10.52-15.06l9.76,15.56c0.71,1.13,72.48,113.54,168.34,122.41l38.5,3.56l-33.6,19.13c-1.79,1.02-44.53,25.03-101.48,29.17
					C857.4,630.38,852.02,630.6,846.47,630.6z M706.01,535.67c40.2,50.81,91.91,74.39,153.96,70.12
					c22.29-1.53,42.41-6.56,58.11-11.81c-67.48-22.88-117.7-83.19-138.05-111.03C752.88,515.97,724.49,529.85,706.01,535.67z"/>
			</g>
			<g>
				<path class="st6" d="M686.29,524.24c0,0,53.09-26.14,70.28-103.66c0,0,133.8,71.24,247.25,31.21
					C1003.81,451.8,872.54,614.65,686.29,524.24z"/>
				<path d="M798.95,563.61c-35.75,0-75.47-7.79-117.98-28.42l-22.39-10.87l22.29-10.97c2.16-1.09,48.25-25.21,63.81-95.39
					l3.46-15.63l14.13,7.53c1.29,0.68,130.52,68.22,237.48,30.48l40.42-14.26l-26.9,33.37c-1.4,1.74-35.07,43.03-92.74,73.26
					C889.52,548.97,847.96,563.61,798.95,563.61z M711.04,521.89c66.75,26.6,133.07,23.15,197.44-10.34
					c22.72-11.82,41.58-25.69,55.78-37.77c-12.33,1.72-24.67,2.49-36.82,2.49c-70.52,0-135.31-25.66-162.84-38.25
					C751.58,481.55,727.9,507.83,711.04,521.89z"/>
			</g>
		</g>
		<g>
			<g>
				<path class="st2" d="M461.9,835.55h-60.65c-147.37,0-266.83-119.46-266.83-266.83v0c0-3.5,2.84-6.34,6.34-6.34h403.76
					c52.62,0,95.28,42.66,95.28,95.28v0C639.79,755.9,560.15,835.55,461.9,835.55z"/>
			</g>
			<g>
				<path d="M461.9,847.71h-60.65c-153.84,0-279-125.16-279-279c0-10.2,8.3-18.5,18.5-18.5h403.76
					c59.25,0,107.44,48.2,107.44,107.44C651.96,762.45,566.7,847.71,461.9,847.71z M146.65,574.55
					c3.11,137.74,116.12,248.83,254.6,248.83h60.65c91.38,0,165.73-74.34,165.73-165.73c0-45.83-37.28-83.11-83.11-83.11H146.65z"/>
			</g>
		</g>
		<g id="GlassLeft" class="st4">
			<path class="st5" d="M748.35,421.56h-9.43v3.16c0,61.48-49.82,111.3-111.3,111.3H518.55c-61.48,0-111.3-49.82-111.3-111.3v-23.99
				h341.08v18.77C748.33,420.18,748.33,420.88,748.35,421.56z"/>
		</g>
		<g id="bottom_shadow">
			<path class="st6" d="M375.02,979.46h250.6c0,0,161.96-3.73,192.61-193.44C818.23,786.03,835.62,987.33,375.02,979.46z"/>
		</g>
		<g id="feather_shadow">
			<path class="st7" d="M477.96,822.23c-8.32,1.26-16.84,1.91-25.52,1.91h-59.69c-137.44,0-248.87-109.16-248.87-243.8
				c0-1.76,0.73-3.37,1.9-4.51c1.18-1.16,2.81-1.88,4.61-1.88h116.09v12.78C266.49,707.59,358.69,807.37,477.96,822.23z"/>
		</g>
	</g>
</g>
<g id="Layer_2">
	<g>
	</g>
	<g>
	</g>
	<g>
	</g>
	<g>
	</g>
	<g>
	</g>
</g>
</svg>
